<mxfile host="app.diagrams.net" modified="2023-05-02T14:35:36.976Z" agent="Mozilla/5.0 (Windows NT 10.0; Win64; x64) AppleWebKit/537.36 (KHTML, like Gecko) Chrome/112.0.0.0 Safari/537.36 Edg/112.0.1722.64" etag="jAQmIUXOm9Wr4bFFPgTS" version="21.2.1" type="device">
  <diagram name="PÃ¡gina-1" id="0WB_8H6w7dVTKpw4ao0D">
    <mxGraphModel dx="2017" dy="1116" grid="1" gridSize="10" guides="1" tooltips="1" connect="1" arrows="1" fold="1" page="1" pageScale="1" pageWidth="827" pageHeight="1169" math="0" shadow="0">
      <root>
        <mxCell id="0" />
        <mxCell id="1" parent="0" />
        <mxCell id="tUQ-aMvzuXg3lIFRuzxx-10" style="edgeStyle=orthogonalEdgeStyle;rounded=0;orthogonalLoop=1;jettySize=auto;html=1;entryX=0.5;entryY=0;entryDx=0;entryDy=0;strokeWidth=3;startArrow=classic;startFill=1;" parent="1" source="tUQ-aMvzuXg3lIFRuzxx-2" target="tUQ-aMvzuXg3lIFRuzxx-6" edge="1">
          <mxGeometry relative="1" as="geometry" />
        </mxCell>
        <mxCell id="tUQ-aMvzuXg3lIFRuzxx-2" value="&lt;font size=&quot;1&quot; color=&quot;#000000&quot;&gt;&lt;b style=&quot;font-size: 16px;&quot;&gt;User&lt;/b&gt;&lt;/font&gt;" style="image;aspect=fixed;perimeter=ellipsePerimeter;html=1;align=center;shadow=0;dashed=0;fontColor=#4277BB;labelBackgroundColor=default;fontSize=12;spacingTop=3;image=img/lib/ibm/blockchain/blockchain_developer.svg;" parent="1" vertex="1">
          <mxGeometry x="60" y="290" width="90" height="90" as="geometry" />
        </mxCell>
        <mxCell id="tUQ-aMvzuXg3lIFRuzxx-13" style="edgeStyle=orthogonalEdgeStyle;rounded=0;orthogonalLoop=1;jettySize=auto;html=1;entryX=0;entryY=0.5;entryDx=0;entryDy=0;strokeWidth=3;startArrow=classic;startFill=1;" parent="1" source="tUQ-aMvzuXg3lIFRuzxx-6" target="tUQ-aMvzuXg3lIFRuzxx-9" edge="1">
          <mxGeometry relative="1" as="geometry" />
        </mxCell>
        <mxCell id="tUQ-aMvzuXg3lIFRuzxx-6" value="" style="shape=image;verticalLabelPosition=bottom;labelBackgroundColor=default;verticalAlign=top;aspect=fixed;imageAspect=0;image=https://cdn-icons-png.flaticon.com/512/1465/1465626.png;" parent="1" vertex="1">
          <mxGeometry x="190" y="390" width="140" height="140" as="geometry" />
        </mxCell>
        <mxCell id="rmS88DElZMO9JBeu8ZCE-13" style="edgeStyle=orthogonalEdgeStyle;rounded=0;orthogonalLoop=1;jettySize=auto;html=1;exitX=0.75;exitY=1;exitDx=0;exitDy=0;entryX=0;entryY=0.5;entryDx=0;entryDy=0;strokeWidth=3;startArrow=classic;startFill=1;" parent="1" source="tUQ-aMvzuXg3lIFRuzxx-9" target="rmS88DElZMO9JBeu8ZCE-9" edge="1">
          <mxGeometry relative="1" as="geometry" />
        </mxCell>
        <mxCell id="tUQ-aMvzuXg3lIFRuzxx-9" value="" style="shape=image;verticalLabelPosition=bottom;labelBackgroundColor=default;verticalAlign=top;aspect=fixed;imageAspect=0;image=data:image/png,iVBORw0KGgoAAAANSUhEUgAAAwAAAAMACAMAAACkX/C8AAACxFBMVEUAAAAAAAAAAAAAAAAAAAAAAAAAAAAAAAAAAAAAAAAAAAAAAAAAAAAAAAAAAAAAAAAAAAAAAAAAAAAAAAAAAAAAAAAAAAAAAAAAAAAAAAAAAAAAAAAAAAAAAAAAAAAAAAAAAAAAAAAAAAAAAAAAAAAAAAAAAAAAAAAAAAAAAAAAAAAAAAAAAAAAAAAAAAAAAAAAAAAAAAAAAAAAAAAAAAAAAAAAAAAAAAAAAAAAAAAAAAAAAAAAAAAAAAAAAAAAAAAAAAAAAAAAAAAAAAAAAAAAAAAAAAAAAAAAAAAAAAAAAAAAAAAAAAAAAAAAAAAAAAAAAAAAAAAAAAAAAAAAAAAAAAAAAAAAAAAAAAAAAAAAAAAAAAAAAAAAAAAAAAAAAAAAAAAAAAAAAAAAAAAAAAAAAAAAAAAAAAAAAAAAAAAAAAAAAAAAAAAAAAAAAAAAAAAAAAAAAAAAAAAAAAAAAAAAAAAAAAAAAAAAAAAAAAAAAAAAAAAAAAAAAAAAAAAAAAAAAAAAAAAAAAAAAAAAAAAAAAAAAAAAAAAAAAAAAAAAAAAAAAAAAAAAAAAAAAAAAAAAAAAAAAAAAAAAAAAAAAAAAAAAAAAAAAAAAAAAAAAAAAAAAAAAAAAAAAAAAAAAAAAAAAAAAAAAAAAAAAAAAAAAAAAAAAAAAAAAAAAAAAAAAAAAAAAAAAAAAAAAAAAAAAAAAAAAAAAAAAAAAAAAAAAAAAAAAAAAAAAAAAAAAAAAAAAAAAAAAAAAAAAAAAAAAAAAAAAAAAAAAAAAAAAAAAAAAAAAAAAAAAAAAAAAAAAAAAAAAAAAAAAAAAAAAAAAAAAAAAAAAAAAAAAAAAAAAAAAAAAAAAAAAAAAAAAAAAAAAAAAAAAAAAAAAAAAAAAAAAAAAAAAAAAAAAAAAAAAAAAAAAAAAAAAAAAAAAAAAAAAAAAAAADMyaeDAAAA7HRSTlMAAQIDBAUGBwgJCgsMDQ4PEBESExQVFhcYGRobHB0eHyAhIiMkJSYnKCkqKywtLi8wMTIzNDU2Nzg5Ojs8PT4/QEFCQ0RFRkdISUpLTE1OT1BRUlNUVVZXWFlaW1xdXl9gYWJjZGVmZ2hpamtsbW5vcHFyc3R1dnd4eXp7fH1+f4CBgoOEhYaHiImKi4yNjo+QkZKTlJWWl5iZmpucnZ6foKGio6SlpqeoqaqrrK2ur7CxsrO0tba3uLm6u7y9vr/AwcLDxMXGx8jJysvMzc7P0NHS09TV1tfY2drb3N3e3+Dh4uPk5ebn6Onq6+9/OVUAACbXSURBVHja7d33Y1RV3sfxnUkPJJRACC303kF6L9J77xBKIKTN3GNZFbEAKit2cRVERZSVKr23kJ456677bFd3XVTa/BPPBEQpSe6Ue2dueb9+3l3dc88nc76n/uY3AAAAAAAAAAAAAAAAAAAAAAAAAAAAAAAAAAAAAAAAAAAAAAAAAAAAAAAAAAAAAAAAAAAAAAAAAAAAAAAAAAAAAAAAAAAAAAAAAAAAAAAAAAAAAAAAAAAAAAAAAAAAAAAAAAAAAAAAAAAAAAAAAAAAAAAAAAAAAAAAAAAAAAAAAAAAAAAAAAAAAAAAAAAAAACgUQPaAPaV+PiyWFoBduUYeGJzGwftAJtq+E7x1nl1aAfYU3RGYfHW/CFRtARsqf0hWbxVrG5MS8COYp+RlQEQk6mDYccKeMjpOwFY1546GPaTts1zJwBifl1aA3bjXFQsfw6AayA/AbDbAKjjQXk3AGJVYxIAe6n9tOfXACjj4mkR2OoHYOw5+WsAxLrONAnspNGHnnsDIBaxHgwbiVlUKu8LgKt/NK0C2+h+SN4fALGqBa0Cu6i1oezBALgnx9EusAfnqAL5YABEXlemQmEPDd6TDwdAzE+mZWAHsSuKqgqAawh1MOyg8zFZVQDE2ua0Dawv/jlP1QEQk2NoHVhd1PhLspoA5HZ20j6wuKbvy+oCIObXo31gbdFrS6sPgGs4PwGwNEfnw7L6APj2RdNEsLK691bADwdAmVyLNoKFjb8gawqAyOlBG8G6muz01BwAsaQ+rQSriltVIVUCoAxjMQBW9csu6OoDIFan006wpjovl6sHQJlJHQxLcowplOoBEPldaSpYUbNPpD8BEEu4JwtWrIBXl/gXAPZFw4p6nZD+BUCs4XwwLKf2qxX+BkCZzvlgWEzU+MvS3wCI3C5sioO1tPhE+h8AsbQhLQYrickuDiQArlHUwbAQR6+TMpAAiKyWXJIC60h+0RNYAMSURFoNVuGccUEGGIDcPtTBsIqmn8lAAyCWpdBusIa4teWBB0AZTh0Ma1TAA07IwAMgslrTdLCCulWuAasGQJnBvmhY4QdgdokMJgDC1YupUJhfk10yuACIpeyLhukl5JQFGwD3CDbFwez6npDBBoA6GKZX57WK4AOgzGE9GKYWPbVQBh8Akd8rijaEibXaJUMJgFiWShvCvOIeLw0tAO5xsbQizMrR+6QMLQDsi4aJNdgqQw2AmJ1EO8KcnHMuhR4A9kXDrNoelKEHQKzgfDBMKcbt0SIAyhimQmHGCrj/SalFAMTa1tTBMJ+Gb0ttAiDmJtOaMN0PwJxCrQKQ34+fAJhN6y+kVgEQKxrRnjCXhNxy7QKgjGFfNMw1ABp2SmoXAJHVkSaFmdR9o0LLAChzOB8ME4meWSy1DIBw9WUxAObR8QupbQBERmNaFaapgJ8p0zoA7IuGiSrgS1LrAIjc9iwGwBzqvyG1D4CYTR0MU4hZVqhHAPIHUAfDDNrul3oEQKxKo21hfLFPefQJgJjIfdEwfgU86KzUKQDZ7aiDYXSN3vToFQAxtw7tC2NzLi2WugXANZifABi8At7r0S8AYiV1MAwt+YmA+n+gAVDGJ9DGMLAxZ6SeAWBfNAwtbYdH3wCIhdTBMKzoeaVS5wCwLxrG1e2A1DsAYkUT2hnGVPuFcv0DoEyOp6VhRI5hl6X+ARD51MEwpNTtMhwBEIuog2FAMYuKwhOA/AFsioPxdPlShicAIrM5rQ2jiV9fHq4AKJNjaG8Yi3PEBRmuAIicTjyaAWNpsk2GLwBifl1aHEYSvaYonAFwDWU9GAbi6HpMhjMAIrMZJwNgHMnPesIbAGU868EwTgU85bwMbwBETnd+AmAUjT70hDsAYhF1MAwidlW5DHsAlKGsB8MYuhyQ4Q+AWN2MlocRJG0sj0QAlGmJtD0MYFyRjEQAhKsbbY/Ia7hDRiYAYjH7ohFx8StKIhUA11AezUCk9fpSRioAIjOd9kdk1f5dReQCoExnPRgRFTX2soxcANgXjQhr+aGMZADE4hS+ASInel1xZAOQP5x90YgYR48TMrIBEGvT2RSHSKm7WUY6AGIG68GIEOfk85EPQE4v6mBERvoeGfkAiIwGfAlEQtTqciMEQBnOTwAiUgEflUYIgFjTkjoY4Ze80WOMALAvGpH4AZhZII0RAJHXi58AhFuzPdIoARBL6/E9EF7xa8uMEwD3MPZFI7wGHpfGCYBY04YvgrBWwFsrjBQAZQbvByOMoqcWSiMFQOT3YlMcwid9pzRWAMTShnwVhEucKDFaAFyPUgcjTBy9T0ujBUCsYz0Y4aqAX5bGC4CYyXowwiJqToERA5DXlzoY4dDqM2nEAIjl1MEIg+gnPMYMgPIoPwHQvwLuc0IaMwBibQvqYOgtdavHqAEQM5P4PtDZnCvSsAHI6833gc4V8B88xg0AdTB0lphXIQ0cADEmjm8EHQ05IQ0dgLXtqYOhn5R3KowdAGUedTB0EzW1SBo7AMLVm0tSoJf2e6TRAyAyGvOdoI94UWr8ALjHsi8aunAMuSCNHwCR25ZPBT0kvy3NEAAxh33R0EH0vEJzBCDvETbFQXsdD0hzBECsTONrQWuxT5aZJQDK2Gi+F7TlHHxOmiUAIrs9iwHQVurrHvMEQMyuwxeDlqKWXZEmCkD+IH4CoKWWe6WZAiBWNuKbQTu1H6swVwDE2Hi+GrTiGHlamiwA2Z34bNBKw3crzBYAZX4y3w3aiF5SJs0WAKEMYD0Y2mi/T5ovACKD9WBoIum5cjMGwD2ROhhaGHZRmjEAIrc93w6hq/+BNGcAxILafD2EKmZBsVkD4OrPpjiEqss+adYAiFVN+X4ITfwL5eYNgDKVe7IQEufQ89K8ARA5HdgUh1A03SbNHACxoB7fECH8ACwtMHcA8gazHoygOTofluYOgMhsymWhCFat9R6zB0AZzz1ZCHYANOGcNHsAxLqu/AQgOGkfS/MHQCzhfDCCEpVRZoUAuAcyFYpgKuAuR6QVAiBWN+NjInC111dYIwDKpAS+JgL+AZhwUVojACKvB3UwAtVgh8cqARALqYMRoLjlJdIyAXAPjuGLIiBdD0jrBECsTueLIhC1NpVbKQDKVM4HIwBREy5LKwVA5HVhMQD+a7ZdWisA7ItGAGJzi60WANcIzgfDT47ux6TVAiDWcD4YfkraLK0XAEEdDD9/AMaft2IAcrqxHgx/NP/EY8UAiGUpfFuoc66rkJYMgDKSqVCoD4C6HpHWDIDIbMYgCGrqveixagDEdC4LhZrJF6VlA5DLvmioaLbLY90AiKX1+cKoSfzqUmnhALiHsC8aNel3TFo5ACKzNd8Y1UveWmHtACjTOR+MakVNuiKtHQCR343FAFSnxafS6gEQSxvwnVG12LwS6wfANZo6GFXre1ZaPwAihzoYVUp82RP2AJS+EfYAiOnsi0ZVFfDUy2Hu/X/88z//c+HdDY+HOQB5vXk0Aw9L3xXm/v/nf/1488bXhcff3/AYdTAiLTo/rGvAf/zLt9dueb03vi4tLTrz8cYnw7oePJqfADzA0edkOLv/X/9z3VupMgClpSUX92x5Mow/A1mt2BSH+6W8Er4K+Ku/fX/D670nAJUR2P/a0+GLwDT2ReM+zgWF4frj/6d//nDT630gAD6FR7atD1c9nPcIPwG4V4vPwvQD8PW/7un+9wWgtPTK8fefD9OvAOeDca/EvLBcBfrVX76rrHyrC4BvJHR61+aw1MPKyDi+On4x4Hg4Bj//9931+7v/QwEoLS0+99kr4RgIrWE9GL9WwG/pvwv6T3//pfKtKQA+lw688YzuIyFlThLfHT9XwNN0vwr0T/+8etPr9S8ApSWFX76jewTcvdgXjbsVsM5jn699a75er98BqJwSOv7B8zqPhJY34sujUsITZfqu+X53zVud6gLgc3bX5id0/QkYRx2MSv3O6Lvme+2WN5gA+Orh3a/oOSWUTR0Mn6S3wl35+hkAn8v739SxGJhbi6+P6OkFunX/f1y96fWGEoDSkoJDb6/XbT24J5vi0HGfXpXvv3+85fWGGACfohM7XtCpGMigDra9WJ0q4L9885N69/crAL4InP5woy4DIfdY3k2yOecAPSrgr3y7nf3p/n4GwDcSuvD5K0/pkIB1rdkUZ2+pOlTAX/39+5teP/kZgMqdcvvffEr7n4HZrAfbWtRCzSvgP6tXvkEFwFcPf/nWs1pHILcf68F21vZAJCrf4AJQuTJwcsfzGtfDq9PoBfaV4K7Qds3Xv8o36AD4tkic2blZ0y0SyqOsB9uWY8RpTSvf/173BirQAFTWw3u2aFkMZHWmDrar+u9odwzsq7/998YtbxgC4IvApb1bf6vdT8A8zgfbdQp0vlYXofhuuPrhpjcYwQTAp+DIu5pdJuTuTx1sTy32ajXxE2DlG3oAfItjJ99/TqMIrEilL9hR7afKtKl8v70WbPcPIQCV92l9tFGTKSFlLHWwHY2+qE3le8MbghAC4OO7T+u3GvwM5HakN9hPvW0eDSrf7697vZELQOV9WlufDv0nYC51sO3ELgn1HPD9N1xFJgCVWySObHs21JUBVz82xdlNxy80uNvZ6418ACrv0/p9qPVwBuvBNpOwIaQK2HfD1U+3vF5jBMC3ReL0p5tCOjzpnkgdbK8lgCHnQrrhyt/dzmEKgC8C5z97OZQpoZz2rAfbSaN3Qzjo+Lf/3fBqRasAVE4JHdwawv3S8+rSK+wjKiPou6B9N1zd8nqNGADfysDhbUEfoc8fwvlg23B0OKj5DVdGCIBvs+ixoO/TymxMx7BNBbxe+xuujBEA38rAmd1Bvrc0kccj7VIBjwxmF/Qf//rd9Vtewwfg9n1aW4KJQFZH6mB7aLoz8DXgP/1dw8pX3wAEfZ/WYupge1gW8BLAn/7xv5ter3kC4Ds/fPCdgLdIuAfwE2CHCrjTlzqf8zVAACqnhI7veCHAengVdbANJD1dEeBu55906/56BsBXDJzZuSmgCCjjqYOt79HzutxwZcAA3F4f3hLI4clszgdbXtpH/lfAgdxwZcgAVO6U2/dWAOvDi6iDLS52cbH/le9Vvbt/GAIQ2H1a7oHsi7a2HocMUPmGNQC375fe/qKfO+VWtaCPWFni82X+Vb7fXAtH9w9TACrv09rh331aylTqYAtzjrnkZ+XrDZMwBeD2fVq/8+d+6bwuXJJiXanv+fHXP7gbroweAF8ELvt1n9Z86mDrVsBri9Tvdv7hpjeMwhiAyvu0jr6lep+Wazh1sFV1O2WMyjdiAfCtDJzarrZfOqsZPcWaEjYapPKNYAD8uU9rUix9xYqiJlzU+m5nMwbA58IfXqnpfuncbtTBVtR0u6eGc77fR6L7RygAvvu09tV0n9bCevQWC/4AZJdpfrezWQNw5z6tDdUVA+5hnA+2HEfnw7recGW2AFTep/V+dVskMqmDLafu8xVV33Cl625nIweg8j6tXdXcpzWFy0KtZuIlfW+4MmMAbr8/XOV9Wrk96THW0qSKXdBf/U2fc74mCsDt+6Vfq6IeXlKfPmMl8avKH77b+eotr9f2Abh9n9Z76x+sh5WhMfQaC+nx5YMTP//+4abXSwDu3qf1/nMPRGB1S3qNddTbWvHADVc/eY3BGAGovE/r08331cPKzET6jVU4JxTdV/l+d/2WlwA8dH7401furYfzu3A+2CrSd9170PH7G17jME4A7tyndc/54SUp9BxriF37yzngr/75v5teLwGobiB05dCv92m5hrEv2hr6nInYbmeTBaCyHj7xy/3SWen0HSuo9arnztD/22tewzFcAHw/A+c+/vn88AzOB1tA1LhLut3tbMkAVNbDu2/fp5XXnX3R5tdqd+Xdzt/f9BqSIQNQeXhy/xu+enhZKv3H7KJzSv78j/8ZtPsbNwCV92m9/axrFPuiTc7R+6zxKl8zBODOfVq/bcNigLklKFcN3P2NHQBfBE4tpQ42eQnc+sWvbxKAIIdBxx5rxRjI7BJH7P6JAAR1ZOz1AQn0HwtouPjcNQIQ8PDn05nshbBKJdz8GXmDAAS0FHA4uzn1r3XUGvjxdwTAf+de7cNuaGtJnn7sKgHwc1fo9nHJ9BjLzQe1fEISAH8cWduCuR8riu697e/sBlWb+jz5Qne2QVu1GE6eevw6Aahx7mfnuNoUv1aeD8ouuU4Aqu3++5c0ZQOoxSPQ5aV/3SIAVR+Mf6wjf/2tr/aEA98TgCrmfraNqUXvsIUGSy9zLcqD+x72zOZSdNuI6fqyQeaDDBKAkpOPdeIqODuJG7b9WwJw14WXBrLt2WacKSsv3SQAt/f9fL6gHnM/9hPV6rdfcTt0afGRdc1Z+LWn2ME7r9o9AAWv9I+jJ9h2UaDe3OM/2jkAV7ZPrcPUv60j0Egpu2HXABQfXNOQ7m938Y+89409A3BuUzeOPFp+urNHmmqFV2vigav2C8Dld8aonnlxJDVhZ6jJZzv7vThKdYE/qrkovmmzAOzNbKr6lyG23YR0hkgmF7P2xMZuqvMcUV1e/b9b9glAyfFn2qv+aY9uPDFzMBOkptfk7fLDGQ3U/pA5ksYfvGaXABRuG6G+6b9W/5XumXXoP+af5+l2SJZ8NCVZ9Ys3WlZw3Q4BKN4zr5H61EDXBS6xogkDICskYLbvgZjCzX1iVf+D7Tf+9abVA1By/PHWqt06qvmkPN8rYT3oPJZQ94UyKSuOrVM/6l1r+J7vrB2Ai2/1V50TcNQbsloRwj2BSVKLaPlJ5RMx5V/MrqO656ve3LM/WDcABbsmq74A70joscxd+T7MQh6Lt4qosZdvPxJ2cUt/1XFQdIdn/mLVABzNa6M69xPVYkr27feRcjqwQ9Qy4vPuPBTsOSs6qJ77iB74wT9vWTAApzf3Uf3/HpU6MuvOC3l5wzggYyHN3v75ndSSPbPUBwF155+7brUAFO2eUk+1+E3sscT18yOps+rSayzE2evI3aeCC38/VHULgLOVy3PdSgEoOrgyXXVEE9t6Tt7dR4JXNWUG1FKilxfeTYDn/BMdVL9udN83/2OdAFx8vqfq4N+ROnqdcrf/5/WjALCYlOcr7iZAVuxfoL7EkzTz8FVrBODyB+OSVP/vJvfO+KX7C2U8F6RYby70c88vCZDlH/nRJ1LWlF43fwCKDqjPZzriOs53i18tYQbUgmXA5Iu/BsA3H/RCV9VpjtjeW/WeD9I9AGfW91Cd+nWmjc+6p/uL7C4UABaUmFsi73U4V/0weMLYT743cwAubh2uuhPWUXfIynu7v8gfFktvsaLGO+4LgCz+cHSS2n8nqlHOlZtmDUDxH5amqhazce3n59/X/8U8XsewqH6n7k+AvLT1EdUp0ag2z+v40KqOASg5kd9G9ScupvmUnPu7v1iTTk+xqLjMwgcSUHE0O019Z/yYz6+ZLwCFbw5V38yWPGSV8kD/zxvEKUjrzoVu8jyQAFm2e47qa6COlCWnfzJXAAo/nlVfPdndF7nFgyYyA2pdjnb75UPKXu+rejGms9lzf75pngCUHMtrrjr4j06f/nD3F8sb0k0sLGr6uYcTUHFStFI/KtD/o2/NEoDzr/RWHf04U4ZnKg/3/3XdmQG19lyoq/zhBEjPvqUNVf9iJk0/8qMZAnBlxwT1My+1+y6vovsL9wjuSbT4ICj9Y08VCZBXXhuuOg6KarW+3PgBOJiTrlrFxrSelldF9xfKQh7JsLzBx6sKgPRceLaz6vpPTI93NH5YQ+MAlJx8rqv6mZdGY7NFlTJb0T8sL2FFUZUJkGX7F6eo3p5Sb9qxn4wbgKIPxqvfdVurd4a76v6f359DMDZQZ4un6gTIkvf9eCS32ZriG8YMQPHexY1V//XjOs7NF9WYzil4W+h+tJoASM+l9d1U54Oiur/5byMG4Oz6zqr/7s60R3OU6vr/qib0DVuInnWxugT4loZXqT8VXXv0oe+NFoBL7w2vrToDUGfgqmq7v8juwSEYu8yFPlZRbQJk+e5p6kcFGi4p+MlIASjcM9uPTf9dFrur7f5CGcUeUNtotdtTfQLkhc291W9P6brpr7cME4CTj6nfdRvVbNI6UUP/X5xCv7ANx/ATNQRAek7ltlXtULHDdn5jjACc2zJAdfnKWX/oGlGTzHYsAdtpELS2rKYEyOLdk1UvRnY2XHblRuQDULRnTn3VwXtCl0X5NfZ/9yAGQLaS8mZ5jQmQV94aqLqhwNn2yVAfWg01AMVfZrVSv++k5czcGru/UGawB9Rmg6C+h2sOgKw47W6p+j8TN3TH1UgGwPfIqfoT7/VHZCo193+xkkMwdhMz47JKAipv001VXRquO/fED5EKQMGOKeoLv7V/vuu2JrndeQnGfmXAhnK1BMjS94cnqEagkeurm5EIQPGR1ar5/E1Mm9kute7vuwidAsCG2n7mUU2A59QznVTng+L6b/vmVtgDcHZjT/VzPA3HrBHqFnMIxo6iRp6WfvgyM019kmXyF1dvhTUABW+PVt2440gemOFH9xdr27EEbEtxeRX+JKDovVGqmwyiminBPbQaXABK9q5R37AR03Z2vj/9XxnGKXibSt3mVwLk5Ze6q640RXd56W83wxOAkpNPtlctWqObTMwWfvX/2bXpCXadC+1/2K8AyPJDq9LUH1qdcOBaOAJQuG2k6n1ejqQBK9x+9X+xsiVLwLYVPeeKfwmQZZ9MUz8tmLry/DW9A1D02bxU1X+RhK7zXP51f5HfmxlQG6uzpdzPBHiubOqt/rpShy0B3qYbaABOPaX+zJez6cRcP7u/cE/hEIytdfxM+qviVF66+u0pQ3d/p18ALrzeT31/Rr3Bqgu/98yAptIH7D0XOuqs3wmQnj1zU9Rfmph37id9AlD46RTVHXqOhJ5L/e/+IosZULtLEKUBJODyqwPV54PavfCVHgE47GqtPvfTYnKO/91fuEdzCt72mrzlkQFE4NzjHdVLgX5+P7TqdwDOvNJbffDfaNS6ALq/bwaUpyDh7HdCBqJ031z104cN5p+6rmUAij6Zon7XbWL3pa5A+r/IbMEMKH4Ttbg4oAT4loZHqt6e4miRV3FDqwAUHchortpVY/1c+L1nBvQRCgD4pLxWEVgCPOef7KB+CqX/tu+0CcClF9SfeHc0HJGlBNb/lekcgsHtztPhDzJAFQeXNFG/TXfysauhB+Dyh2PU7ztJfsTfhd9fLUvj0+NOGTD+UqAJkKWfjKulflQgq+x6aAEoOrBIfdN/bLsFrkC7v8jtRAGAn9V6qiTgBMhzG9UfWo3p8WrN80EqATjzTDfVf4YzbWJWwN1fuB7lEAx+kf57T+AJkMfWqS8Nxz/66X+DDcDF14ap33dSd+AqEYQ5XISOe7rR4NNBBEAWffSo+u0pjdYW3QgmAMX7ljRQrTPiOyzIC6b/r23FAAj3jlVWFASTAHn59X7qD612eK7ah1arDUDx8by26o+cNp2WE0z3F7mD2AOK+zT8nSeoBFQczWmqXmOM2f1jYAEoeH2YarB+U2foKiWo/q9MS+KL4/4Zm077ZXDKP5vdQHU+qP6S0z/6H4ArO2fVU3/oottitwjO8jQGQHiwj84qDDIBsvi1/qrFalSLDVXdpltVAEpOupqr33XbfFpukN1f5PWg/+Mhyb8tCzYBnpNPqt+mm9D/o+9u+RGA8y/3Ub/vpP7ITCXY/u8eE8/XxsMa75DB279cfcomcebhn9QCULh9kvp9J7X6LRPBm88eUFTZr0acCyEBhe+MVO25Ua3Xl9+qKQAlB3P9eeR0el4I/T+bi9BRtbjMKyEkQF7a0En9tEz3N/5xs7oAlJx+Vv0euuhG49aF0P1F3mCuAUI1Ut8MJQCy7MAy9dt06009eq3qABR9MEF9cJLYd5k7lP4vZjADimp7Z7eDnpAiUPrBpGQ/HlotvP5wAIq+WKK+PTOu8xxXSN1frGjCAAjVjy8WhjQIqnxo9bnu6kcFur/7zYMBOPt8Z/VN/zU9curnAKgvh2BQg7pPlYeWAFlxYk1z1X0GSSP3/vfeAFx6d7D6bW81PnLq5wzoWK4BQs3jk089ISZAln06XfWhVUeD5UXX7wag6Iu56id+Y7ssdItQLWYPKFR65tgzMmSXNvdVf2i186av7wTg+OPt/Fj4HZ8dcvcXaztSAEBFwpqS0BMgz7r9eLl36O5vb3x9/rX+6mdeUoZmhd79hWsQ1wBBVYP3NAiALPl8iupww5m69MzeWQ1Cf+TU30MwzIDCD72OaJEAWfjusETVUqC5+n0nMa1n5mnR/cXqZnxb+CFmUYEmCfCczm+rwQ/S4DWKJv0/ty+HYOCXpBcqNEmALN+3sHFIZacjqddytybdXygT2AMKP7tdu31SI8XvDwmh30W3mqXN6KfyEAxPQcJfURPPaJUAefq5TkHuPnOmjl2jVfcXWV2ZAYXf4rNKNUuAPLKqSRD7DxzJfVdq1v2FaygzoAhA4w8qtEtA4faRyYH+C8S1mZenXf9X5nEIBgHpf0Rq6PKW7gGVAjGNJ2ULDa1qwRdFYIOgJUVaJqD8YGYA+5CTB65wa9n/8x/hEAwClLS5XGoagV0z6vv3T07svEDT7i+UyewBRcC67tM0AL4Hxl7q7scfYmfapBxF0/7vOwTD10TAosefkxpH4IRooRIBZ71hqzXu/iK7M4dgEISYxyqk1hH4fFFNV7454nsudmvc/YUyii0QCEr6Ts0TIAu3Dq52Pig6fWqu0Lz/L+QQDILjGHRMau/C0x2qXJSKajA6S2gvszVLwAhSfEaJDgko+2JhFScgE3oudunQ/10DWQJG0Or+rlyHBMiSdyc88NBqbPuZ+Tp0f+GelshXRPB6fKFHAGTF+SfvnZpxNByVpejR/8XypnxDhCB60iWpTwS+XNns5wg4kvpnuHXp/iKnKzNACEnChjJ9EiBLdo67fZVodLt5+fp0f+EeH8cXRGha7fDolAB58flesVFNxmYJvSxI4fshRM5+J6RuzuSMy9St+4s1LZkBRehlwJpS/RJw+RX9+r9rKAUANNDwjQrdAlC8Vbf+r8yozbeDBhy9DpkxACubMwCCJqKmFZgvALk92AMKjSRvLDNbANyTOAQDzbT50GwBWNiArwbtBkHDzpkrAFltKACgobj8IjMFwDWCPaDQVOOtFeYJgDIjmS8GTTl7HjVPAFYzAwrNEzC3wCwByO1D/4fm6m8sN0cAlEkcgoH2HK0+M0cAljIDCl0SMLbADAHI7cQACLpIUEqMHwDXqFi+FPSR9obH8AGYxQwodJsJ6nvc6AFYyyEY6Cd62WVjByCnH4dgoKMGmzxGDoAyuRbfCHrOBLX53GPgACzjKUjoXAZMu2jcAOT0oACAzmrnlho1AO6RXAME3TXc7jFoAOYzA4owGHTamAFY25ZvgzCIXV5gxADkDuApSIRFyhYjBmAaM6AID0fHvR7DBSAjjQ+DMHHOuWi0AOT05hoghE3yY2XGCoB7dDxfBeHTbJfHUAFYzFOQCGsZMPyEkQKQ2Z5PgrCKW1xknAC4+jMDijCr/7bHKAFQZnMROsKu+wGjBCCDpyARftGzCowRgNyeHIJBBCQ+WW6EAChjOQWPiGi9xwgBWM4hGESGc+zJyAdgTUcOwSBC4jLLIh0A92BmQBExjd6piGwAlDkcgkEE9d4f2QBkpPMNEEGxcwojGYD8PgyAEFG1NpRGLgDuiZyCR4R12B25ACxtTPsjwqJGnYlUALLacwgGEReTXxGZACgj2QIBA2iyrSISAVDm1aXtYQQ9D0UiAKtbsAQMYwyClhSHPwCufsyAwiCSXyoPdwDcUxJodxhF58/DHYClTWh1GEbU6PPhDUBOJ2ZAYSCJT5aGMwDucRyCgaGk/94TxgDMrU+Lw1AcfU6ELwCZ6cyAwmCiVxSGKwD5g1gChuHU31QRngAoU7kIHQYcBHXcG54AZDRmAAQjJmBSQTgCkNuV/g9DSlpfqn8A3BO4CB0G1eID/QMwjxlQGJVz0Fm9A7CuLQMgGFZs5hV9A5A3lD2gMLCUTR49A6BMTaKNYeSZoO6HPDoGYFVTBkAwdhkw86J+AcjpSf+HwdV9qlyvALjHJdK+MLomH+oVAJ6ChBnKgJEX9AlADhehwwzis4v1CED+sBjaFmaQ8rpHhwDM4ClImGQQ1OOo9gFYwyEYmEX0vAtaByDnEU7BwzTqrfdoGwBlAjOgMJGWuz1aBkBZnEKbwkScE89oGYB1HIKBudRaW6pdAFzDeAkGJtPQr4uC/AqAMp89oDCdPke1CkBmS1oTphMzt0CbAOT24RogmFCdzdoEgIvQYU5tv/BoEICMRrQkTClqyrnQA5DdgyVgmFTiurJQA+AewQwoTKvZR54QA7CIpyBhXo7BR0ILwOo2NCJMLHZBUSgByOcpSJhbnS3lwQdAmclF6DC5Tp97gg7Assa0H0wueuLFYAOQ240lYJhe3OPlwQVAGc0peFhA+ieeoAKwtAFtBwtwDjkaTAAy23EIBpYQk1EeeADcPAUJq0h5rTzQACgzuQYIltHtD4EGIKMprQbLiJ1xJbAA5PViCRgWkvh0aSABcI2Ppc1gJa0/CiQAi1JpMVhK1MAT/gcgqy2HYGC1MiC33N8AuEcyAwrLSXujwr8AKLPq0Fqwns4H/QvASmZAYckyYFaRPwHI5yJ0WFPt58rUA+CeFE9LwZo6fKoegCUcgoFVOYefUwvAug4MgGBZ8e7imgPgGsMSMCysyRueGgMwi2uAYGWOnsdqCgBPQcLiohcWVB+AvIEsAcPikjeUVxcAZRJPQcLyg6B2e6oLwPJGDIBgfWMuVR2AnM60DWygliipKgDuR7kIHbaQ+nZVAZhXj5aBPcqAgWceDkBWGwoA2ERMRsGDAcjjGiDYR92NngcCMJmL0GGjQVDHnx+QvBuAlU0YAMFGnBPP3xuA7B70f9hKncfLfg2A+1HewobNpH3guRsAZQF7QGG7MmDoqbsByOrAAAi2E7es8E4A8gdxDyhsKHnrnQDwFCTsqevhygCsbkZLwJac084Xb83uxSl42HUQ9NSVreOYAYVtNXvvsfq0Auw7CHqkJzOgAAAAAAAAAAAAAAAAAAAAAAAAAAAAAAAAAAAAAAAAAAAAAAAAAAAAAAAAAAAAAAAAAAAAAAAAAAAAAAAAAAAAAAAAAAAAAAAAAAAAAAAAAAAAAAAAAAAAAAAAAAAAAAAAAAAAAAAAAAAAAAAAAAAAAAAAAAAAAAAAAAAAAAAAAAAAAAAAAAAAAAAAAAAAAO74fzbVxAHJLFSzAAAAAElFTkSuQmCC;fontStyle=1;fontSize=16;" parent="1" vertex="1">
          <mxGeometry x="490" y="520" width="153" height="153" as="geometry" />
        </mxCell>
        <mxCell id="tUQ-aMvzuXg3lIFRuzxx-11" value="" style="shape=image;verticalLabelPosition=bottom;labelBackgroundColor=default;verticalAlign=top;aspect=fixed;imageAspect=0;image=https://upload.wikimedia.org/wikipedia/commons/thumb/3/36/MetaMask_Fox.svg/1200px-MetaMask_Fox.svg.png;" parent="1" vertex="1">
          <mxGeometry x="270" y="370" width="100" height="100" as="geometry" />
        </mxCell>
        <mxCell id="tUQ-aMvzuXg3lIFRuzxx-17" style="edgeStyle=orthogonalEdgeStyle;rounded=0;orthogonalLoop=1;jettySize=auto;html=1;entryX=0.5;entryY=0;entryDx=0;entryDy=0;strokeWidth=3;exitX=0;exitY=0.5;exitDx=0;exitDy=0;startArrow=classic;startFill=1;" parent="1" source="tUQ-aMvzuXg3lIFRuzxx-21" target="tUQ-aMvzuXg3lIFRuzxx-15" edge="1">
          <mxGeometry relative="1" as="geometry">
            <mxPoint x="960" y="335" as="sourcePoint" />
          </mxGeometry>
        </mxCell>
        <mxCell id="tUQ-aMvzuXg3lIFRuzxx-18" style="edgeStyle=orthogonalEdgeStyle;rounded=0;orthogonalLoop=1;jettySize=auto;html=1;exitX=0.5;exitY=1;exitDx=0;exitDy=0;entryX=1;entryY=0.5;entryDx=0;entryDy=0;fontSize=12;strokeWidth=3;startArrow=classic;startFill=1;" parent="1" source="tUQ-aMvzuXg3lIFRuzxx-15" target="tUQ-aMvzuXg3lIFRuzxx-9" edge="1">
          <mxGeometry relative="1" as="geometry" />
        </mxCell>
        <mxCell id="tUQ-aMvzuXg3lIFRuzxx-15" value="" style="shape=image;verticalLabelPosition=bottom;labelBackgroundColor=default;verticalAlign=top;aspect=fixed;imageAspect=0;image=https://cdn-icons-png.flaticon.com/512/1465/1465626.png;" parent="1" vertex="1">
          <mxGeometry x="800" y="390" width="140" height="140" as="geometry" />
        </mxCell>
        <mxCell id="tUQ-aMvzuXg3lIFRuzxx-16" value="" style="shape=image;verticalLabelPosition=bottom;labelBackgroundColor=default;verticalAlign=top;aspect=fixed;imageAspect=0;image=https://upload.wikimedia.org/wikipedia/commons/thumb/3/36/MetaMask_Fox.svg/1200px-MetaMask_Fox.svg.png;" parent="1" vertex="1">
          <mxGeometry x="760" y="370" width="100" height="100" as="geometry" />
        </mxCell>
        <mxCell id="tUQ-aMvzuXg3lIFRuzxx-21" value="Government" style="shape=image;verticalLabelPosition=bottom;labelBackgroundColor=default;verticalAlign=top;aspect=fixed;imageAspect=0;image=data:image/png,iVBORw0KGgoAAAANSUhEUgAAAmwAAAJsCAYAAABAlf8lAAB79klEQVR42u39eXikaWHfe3+fvVbtUqv3melZGZhhALPYITLGjq8oNgnejm3kGHiPEyxskyP7BYyJCQnGQDCXsYPXHDLEIuTCCwk48nuOTEDGBozBA4MHZmXonulN+1bbs75/1CP13i21SlItvw8XV6vVGkl111NV37qf5TYQEdmhqZkxAyhu8ct/BXhzi9/k9wG/tsWvXRsdmUy0lYjIThgaAhHZYpT1Ae41/vkA8FWN0lU9Hzh/jX/zR0cmFzVEIqJgE5HtRFkv0HONf/448CKNUkN9Gfixa/zb8ujI5JKGSEQUbCKdG2YF4PhV/umNwM9qhJrC7wIfusrnT46OTK5reEQUbCLSXnHmAPdf9umXAb+l0WlJvwB84bLPfW10ZDLQ0Igo2ESkdQLtxUDmok/1AZ/QyLS1VwMXHwtXHR2Z/JKGRUTBJiLNE2gvBAYu+tSDwLBGpqOdA1570d/nR0cmv6JhEVGwicjexNm9wJ2XffrfAg9odOQ6HgL+w2Wfe3x0ZPIRDY2Igk1Edh5oJ4CXXPSpHwd+UCMjDfAp4L9f9Pe/HR2ZfErDIqJgE5EbB9qBy4LsHwE/rZGRPfAR4K8vDrrRkcnzGhYRBZuI1COtyIXjjU4Ab9KoSBP4ILAx4/bg6MjkmoZERMEm0mmR9iYunMnZC7xFoyJN7L3AxkV8q6Mjkx/UkIgo2ETaNdLGgaH0r2/h0ktviLSKahpwALOjI5O/oyERUbCJtHqkvR64O/3ra4FBjYq0kTnql5EBeHR0ZPLDGhIRBZtIq0TaTwDfmf71B7n6ElAi7eYk9TNPAT4/OjL5MQ2JiIJNpNki7QeBf5H+9buAuzQq0sEeA/4m/fh/jI5MfkpDIqJgE9mvSBsB3pD+9V7geRoVkSt8Hdi4QO/vjY5MzmhIRBRsIrsdafcD70z/egytMCCyHQ8Bp9KP3zE6Mvk1DYmIgk2kUZF2BNg4mLoPeKFGRWTHvsKFBetfPzoy+ayGRETBJnIzodYN/DmQVaSJ7Hq8VYAfGB2ZXNFwiCjYRLYSav8b6AZs4D6NiMieeRgIgZXRkcnv0XCIKNhELo+0T3DhzM47AUujIrJvIuDx9OPHRkcmX60hEQWbSGeH2n+jfs20g4CrERFpOj5wlvq13X5SwyEKNpHOibTfBn4s/WuPQk2kZcJtOf3446Mjkz+vIREFm0h7BZpFfRfnu4Cfpb6Gp62REWlZIfU1TX8XeDsQjY5MRhoWUbCJtGaoedTP8JwA3gaY2uZF2koCxMC7gQ8AldGRyZqGRRRsIs0faRnq10oD+CngPRoVkY7xVuCP0o8XR0cmqxoSUbCJNF+oHQZeAfyhRkTqLp5U3ZiMkQ7xM8BngNMKN1Gwiex/qHnUL8NxHzCpEZE6CwMXwyhiG0XAIExWSJI1EnyFW2cZo359t8e1u1QUbCJ7H2o28ALgKPAnGhG5ONYso4eMPUzevRXH6gGgGj5LLVyhEpwiSpapX+pLOsiPAM8Afz86MhlqOETBJrL7sfZy6pfj+KRGQy5lYhm9ZOxD5N1jOFbvFV9R8k+yWv0HYlbQTFtHehWwPDoy+TkNhSjYRHYn1F5B/ZIcnwA8jYhcKUvGPkqXd8dVY23D+eUvs1r5JkniY5omGJDNOhq+zlEDXg1UR0cmP6PhEAWbSGNC7ZXUZ9R+DxjQiMi12GYvRe9+cs6R637ds2e/xree/WuCsIrrWtiOyeBQkWxO0dZh5oE3UJ9x+7SGQxRsIjcXat8LDFO/4O1xjYjciGP10+XdT8Y+tOVgA3BdC8e16B/Ik8tr4YsOdJL6BXjPjY5M/qWGQ5ryDamGQJow1F4JnAD+DXCPRkR2m+/XT0BYmC8BKNo6z3Hq12/75tTM2G8CT2nGTRRsItcOtVdQvzzHTwMPaERkP6JtcaFMkkC+oGjrQPcAvw88NDUz9hHgYR3jJgo2kQuh9o+B76J+9tZLNSKyX4IgIgGWFstAQr6gc1s61APp/784NTP2SeBvRkcm/0rDIgo26dRQexnwT4HvBl6uEZH9liQQBvWZtqWlCglQULR1spem///c1MzYZ4G/GB2Z/IKGRfaDqSGQfYq1lwK/BvxbxZo0Y7TVqiErSxXW13RxfOHl6XPVr6XPXSJ7TjNssteh9nzqa/zdC4xoRKSZo60KsFwBoFDUTJvwCuA9UzNjjwB/ODoy+VUNiSjYpN1C7W7gLdTPxnqFRkQUbdKiRtL/3zM1M3YSeO/oyOSjGhZRsEmrh9ox4H3AkEJNWjPaYqqEija53Mbz2fGpmbFZ4M2jI5OnNCyyW3QMm+xmrB0EPgL8H4o1ad1oS+rRVg1ZWdYxbXLVcPs/gI+kz3kiu0IzbLIboVagvt5nDvhOjYi0R7RdtHvU0NmjcoXvBv5kamasDLx6dGRyXUMijaQZNml0rP0l8GngexVr0l7Rlh7TVg1ZXqpQWtdMm1zhO9Pnvk+nz4UiCjZpylj7NPXdAy/WaEg7R1utGrK0WKG07mtQ5GpeDLwifU4UaQjtEpVGhNr/or725+16EyCdEm1QXxHBMLT2qFyVCYxMzYw9Sn1t0n+mIZGdblAiO4217wPuAiyNiHRStPm1kIX5EuWSZtrkqqz0ufH70udKkZumGTa52VD7Y+oH2fZoO5JOjbaNBeMX5ksYhkE252hg5Goc4J9MzYzNAZ8dHZn8UQ2JbJehIZBtRJoDfBj4IcBDM2rSbK+KVj9d3v1k7EPX/bpnz36Nbz371wRhtSE/13UtbMdkcKioaJMbiYAa8GfA60dHJgMNiWyFZkZkK6GWAzLAB4ExjYjIpTZm2mbPrzF0QNEm12VRv+TRWPr8+iagOjoyWdbQyPXoGDa5Uax1Ab8BLCjWRK4fbVEYM3t+jUo5IEk0JnJDY+lz62+kz7Ui16QZNrlWqPUAg8AvAG/QiIhsLdpcLsy0ZbIOhg48kRt7AxBOzYz9FjA3OjK5rCGRy2mGTa4Wa33AW4HHgZ/TiIhsL9o2ZtqqFc20yZb9XPqc+9b0OVjkEpphk8tD7U7gVcBbNCIiNx9tF8+06Zg22Ya3APHUzNgngcdHRyYXNSQCmmGTS2Pt54AvAL+sERHZebRdfEybyDb8cvpc/HOabRMFm1wea28E3qnREFG0SdN4J/BGRZuAdol2eqh1Ad8P3KNYE9m9aHOBudl1BocK2j0q2/XvAWNqZuybwP8zOjK5qiHpTJph69xYK1CfVfu4Yk1k96MtDCLm59a1jJXcjHemz9VvTJ+7pQNphq3zQs0FXg/0A+/SiIjsXbRBfRmrBMhrwXjZvncD5tTM2ALw4dGRSdW/gk3aNNZM4P8C3qPRkNZmkCQ2V+wkSLa+Wtp+XG3D9yMSYGmhDAnkC4o22baNN9rdUzNj/3F0ZDLWkCjYpP38UvoOTaRlQw1cHLOIaRRwrIFL/tUyXWyzeMPv0lU4QE/xCOFla4nGScRaaY4kCXftFoRBfaZtabEMJOQLnu5WuRnvTt93vE9D0TnPftIBpmbG3gr8O+qLtou0psQj4xwi79yGZXo41s2fPLe6fp44vjTM4jhiceUUp85+ZVejzTDAdiwyGZvu3iwFRZvcnBrw70ZHJrXXRMEmbRBqbwaGgX8F5DUi0rosXPMwPdnn7ijUbiQMa5w882VOnvny3kVbT5ZCUdEmN6UE/AFwbnRkUrNtbf0MKO0ca2+lftXsVwA6WEZa+92lYZF1jpFzb9nVn2OaNlmvm7X181T93b2CQhInxAlEYYxpGriejlKRbXOBlwEves3r7jM++uDDf60haU+6rEf7xtrbqB+z1qvRkDZJNkxjb56yLNMmm+nZ9Z+TJBAGMdVqyMpyhfW1mu5muVm9wC+lz/3Sls+A0m6h9kvAi4HvBgY1ItI+T1Y2Oec59GTv2/WfVa4s8bVHP0m5Or83t80wsB1Tu0elEeaAzwJfGh2ZfL+Go31ol2j7xdovAi9Bx6tJG4oTE8u0cazuXfsZYeRzdvYbzC0+wV5e/COJIU4S7R6VncoD9wL3pbtIP68haQ/aJdo+sfaL1HeBDms0pE1zjShZoOSf27WfEEUBZ859nWfPf42EaE9vXZIkhEF0YffounaPyo4MU99F+osaCgWbNE+sTQBvBg5oNKS9+UTJyu5FEzGV2go1f21fbl39mLZ6tC0vVSgp2mRnDgBvTl8jpMXpGLbWDrV/DfwscBgY0IhIJzxl2eYABwrfvyvfPYxqPHXyb3j2/EP7eyvTS354nk1vX04rIshOzQOngd8dHZn8fQ1Ha9IMW+vG2v8J/Bpwv2JNpL1szLTVaiFLiyUtGC87NZC+Vvxa+tohCjbZo1h7LfB+6gu4i0gbR5tfi1iYL1EuK9pkx/qB96evIdJidBpSa4UawBjwISCnERFp/2jz/frJD/OzJQaHDLI5RwMjO9ENfGhqZiwEJkdHJjUiLUIzbK0Ta1Yaax9WrIl0Ft+PCIOIudk1KuVAAyI7lUtfS8bS1xZpAZpha/5Qc9J3RP8U+K8aEZHOjTaA2fNrDB0oks06Om1MdsIB/ggwpmbG/gJYGR2Z1LuBJqYZtuaONRd4FfUrVyvWRBRtRGHM7Pk1KpWAJNGYyI791/Q15lXpa44o2OQmYu0HgD/RaIjI1aKtqmiTxvkT4AcUbQo2ublY+1ONhogo2mSP/KmiTcEmW481R7EmItuNNpEGR5tOR1awyXVizQL+uWJNRLYbbTp7VBocbf9cZ5Aq2OTqsWYArwb+WKMhIoo22Wd/DLw6fW0SBZtc5IeAj2kYRORmo21udl0rIkgjfSx9bRIFmwBMzYz9GPVTq3VdPBG56WgLg4iFOa09Kg1jA/81fY0SBVvHx9prgD9AqxeISAOiLfAjFhZKlBRt0hg54A/S1yrZ53qW/Qu1YeCXqa9kICKy82gLIhJgaaEMCeQLukKD7Fg38MGpmbFh4NzoyORHNSR7TzNs+xNrPwW8B3g/0K8REZGGSSAMImq1kKXFMqX1msZEGqE/fc16T/oaJgq2to+11wLvAo5oNERuJkj2YsdAa58Yl1wUbctLFdbXFG3SMEeAd6WvZaJga9tYex3wDuCYRkNk+xFl0IVr9+7eE6Jh0997C92Fw0BrX4JqI9qq1ZCVZUWbNNQx4B3pa5rsEV0Ub+9i7fXAvwVu1WiI3IwsWfsIRe8ElpnZnSQ0TDJeF55XoFpbo+avtvyoJXFCnEAUxpimgevp0GVpiB7gvte87r61jz748EMaDgVbO8Xa2xVrIjedUtjGED255+JYPbv7kwyTjFfEMm3ml54G4jaINoiTRNEmjdaraNs72iW6+7H2OsWayM6fqhyrG8fcmxOqTdMmm+nFaJP3tEmSEAaxdo/KbrgVeLt2jyrYWj3WXgv8qmJNZMfJQZyEGgZFmzRvtP2qTkRQsLVqrP0U8E7gFo2GyM6DLYjW9/xnJm0WifVou+hEBF3yQxrnFuCduuSHgq3VYu01wLvR2aAiO4gLgyTxIOnFNY+QdXr2+DcwMAwbsEkSo43G9cLZo8tLFV2nTRrpGPBurYqwO3Tk6e4YRtdZE7mJmLCAHK7VhW15FNy7MXAxDRPD2Nv3l4X8AC++7yeo1FaZX/wWleoKy2tn0l2zUVtEG8DSYgUMg3xeKyJIQxxJXwOl4W8hpaHSdxYfRCsYiGwr1CyjB9fupujdhWXkMQwD03D3/WkqSWLCyCdJYqIoYK10nmfOfpXV9dmWjzfDANuxcD2L/v48OUWbNMYC8CYtYaVga+ZY+zHqC7lrbVCRLQdRnow9SFfmHmyzC9Owm/qpKU4ioihgcfkUz5x9iNXS+fRYt6RlXwVcx8JxLfoH8+RyijZpiBXgX42OTH5cQ6Fga6ZQM4AfAv4rkNOIiGy11opprN2NY/W21FNSksTEccT80rf49rNfYr0y17rRBriuhe1YDA4VyOYcbZvSCGXgXwJ/NjoymWg4FGz7HWsW8GrgY+iYQJFtBE+GjD1Md+beNNb242lt568hCQlzC0/xrWc+T6ky3/LRZtkmQweKijZplBD4CeAToyOTkYZDwbZfseYA/xz4Y42GyPaeehxziO7MA3j2wLb+O8MAwzAu+nv9Y9O0sR33on+7Mb9WJkmSNCCTen4lXPLnVn3zyWnOzX+j5a8Xd3G0ZbIOhl4lpDF+FPifoyOTgYZCwbbXseYCPwD8qUZDZHuSxCNjH6Y7c891Z9cMw8Qw6lFmmia242LbLhk3i2nbuI6LZbs4zs6OuwoDnyCoEQQBYejj+zXC0CcI6icbJEmS/v/ay1TNL36LJ05+jnJ1vuXvH0Wb7JIfBv58dGTS11Ao2BRrIi3xxNNNT+YF5NzDlwWagWlaGKaJZdp4mRye45HJ5nHdDKa1t0tFxXFEtVKi5lfxa1V8v0IYhpvHr23Mzm14+LE/Z37xCZI2WH9U0SaKNgWbYk2kw9V3hz4fzx7CMEwsy8I0LVwvSzabJ5PJ43nZbe3e3JuAi/H9KpXKOtVqGd+vEkUhcRSRJHF9t+jCN4nj9tjro2gTRZuCrVVjzQFeBfyJRkPk5p92PHuY3twLyXkH8bwc2WyebK6IbTtNF2nX4/s1KpU1KpUSfq3K6bNf5/Fvf5ZKbblt7i2diCC75EeAT+qYtq3TWY3b061YE9kJC8ssUMgdpr/vKD1dR7d9okBzxYyH63p0dw/UZ95q82TOFan6ayRJe5wQ5/sRLjB7fk3RJo30J8AgMK+h2Oqzp2xJevmOH6J+CQ8R2QbDcHGdHgq5WxjoeYCjwy+mp/solmW3bKxd8WRq2diWg2m6kEAUhURR2BbHs0VRgmkYVCoBnmfjOHrpkIb4h9e87r5HPvrgw7pG21aeRzUEW4o1gDHgjzQaItt5gtkItaP0FO+kv/s4uexg29/u5eUznHr2EU6ffYT5paep1NaI49Y/XGfj4roDQ1oRQRrmp4DJ0ZFJjcQNaJfo1owBH9YwiGyVg+v00ZU7Qm/XPfR1HyOb6ZzldXt6DtHTc4ijh5/Ds2e+yelz32R2/gmqtXXipHXDzffru3kX5kowgNYelUbYeG1Vsd3wDbBc19TM2GuBD6Elp0S28IRi4zj9dOWP0Nv1HPq6jpDNDHT8uCwuPsuzZ7/J6bPfZG7hyZYPN9e1cDyLvv48eUWb7FwZeOPoyOSDGgoF283G2v8JvB8t5i5yw6cSy+yhp3iMvu776S0e6ohdn9uRJAmLi6c4c+4JTp/7BrPzT1KuLkMrHuNmgONYeJ5Nb1+WfMHTHSw7tQL80ujI5H/WUCjYthtr/xr4NaBfoyFyPR75zBGK+Vs4MvQAhfxBDcl1xHHE4uKznJ19gmdOP8z5+Sep+aut9+JhgO1YeBmbnt4sBUWb7NwC8CujI5O/r6G4ko5hu7afVayJ3OAJxBygr/sEB/peSDbbRS6jWbUbMU2LgYHj9PYeYnjodp4+9RCPPjFDtbbaUrtJkwTCoH5M28pSBRIoFBVtsiP96Wuvgu0qdG72VUzNjE0Ao+i4NZFrvFg79BRu5+jB72G4/3l0F4/g2HkNzDbDLZ/roa/nMLlMD2BQrqwStdjZpEmcECcQhTGmaeB6mgeQnb0PfM3r7os++uDDX9BQKNhuFGu/CLyF+gX9ROQyBj0M9t7LsYPfzUDvnbiOQm0nHMejt+cQfb1HsO0sq6vzRFHQUtdvU7RJA+WAB17zuvsSRZuC7Xqx9kvA/xc4oNEQuZxJPnMrfV13cezgd1LMH8YwTA1LI0bWtMjluuntOUhXYYAkgXJlpaVm25IY4iRRtEkj5IH7X/O6+/jogw9/XsOhYLtarP0iMKzRELmcQ2/xORw/9D0M9t1FLjOgWNsFrpOhp/sAuWwPYRBQrq4SRjVFm3SiAnDfa153n6Foq9Oj6YIXK9ZErqbIYM89HDnwMoqFw5iG3uft6pOy7TF84HaKhQHyT/Tz2JOfo+ovt8TapEmSEAYxVUJYrtRfdXUigty84fS1WdAMGwBTM2NvA36c+jSsiGzEgzXEYM9zOTr8UoqFQ4q1PWKaNplMgb6ew/R2D1OplChXlltmQfmLj2mzLAPX1dyA3LSh17zuPuejDz78OQWbYu2t1HeF6nLsIhfJuEcY6LmXwwdeSCE/jKFY23OOk6GrOEQh10OtWqVcWSaOg5aKtiCIsSwT19X2IzclDzz/Na+7z/zogw//tYKtc2PtzdTPCO3TY0Lkgpx3nFsO/xMODd5PxutRrO0j07QoFPrJZbqoVNcpVZaI47Bloi1JIAgiLFvRJjf/lAS8MD1z9G86dRA6fZ56GOjVY0Hk0lg7fuh7Gey9E9PUrqymeGdtORw8eDcY9QvWnjn/dcKo2vzBdtHFdRcXShhowXi5ab10+HHmHft2J90V+n8BevYQ2Yy1Yxw/9H0M9t2lWGsypmlSKPSTz3bh+z7r5fmWmWmL4wQjgVotxHEtHEczbXJT7nvN6+6LO3XXaMetJTo1M2YCvwT8e0CnL4mkTwU57yjHD/0Thvru0iU7mliSxJw9+xiPPPpZTp39CkFYbZnf3XUtbMdicKhANufozpSbUQN+FXj/6Mhk3Ek3vKPe5kzNjLnUTzD4dUDPFiJA/YK4x7jl0PdzoP9uxVqzp7VhUCwOkMt0sV5ap1SeJ26Rs0ejKMEwoFIJ8DxbM21yM2zglUD1Na+77+8++uDDUSfd8E7yeuA92t5F0hd/THKZYxw/+H0M9d+tAWmhe+7gwbswDAMDOH3+ay1zgV3fj3CB2fNrDB0oksk6GIbuUdnmu8z6a/kK8HuddKM7wtTMWAHo13YucuHh77oHODT4jxRrLWp4+E4eeN73c/jA/Zhm6+w08P2IKIyZPb9GtRKQJLov5ab0p6/tHaEj5qOnZsa6gJ8Dfk3btwiAgW310999H0O9J3DdooakRRUKAxTzvSwsnqNcXQJao36iKME0jM3do7ZtaaZNtut7gPXXvO6+hz/64MO1dr+xnTLD9v3Au7Vti6QPfCNPd+FOjgzdRyF/SAPS4oaH7+RlL/phst4ArXQu2eUzbWimTbbv3elrfPs/b7f7DZyaGesD7tE2LbIRax49xdu59dBLKeQPa0DaKNpuO/ZCHKe19hBdHG2VSqA7Um7GPelrfVtr612i6R34RuqX8BDpeIZhU8zdxi2HX0lX4agGpK3uW4NDh+5mefEMa6W5lrlGG1y5e1Rnj8o2vQIoveZ19/3DRx98uKJga81Y+znFmsgGE88Z5NDAdzLU/xwNR5tGW9YrUK6UWCvNtcxi8RdHW7Ua4LqKNrmpaCu/5nX3fb1do62dd4neCbxT27BI+u7MzNHbdS89XdoN2r7BZjI8fCf33jVCzuun1a6N7vsRYRAzN7tOuezrDpXtemf62t+mb7nbUDq79iptuyIbL+QOXfkTHDnwAIXcQQ1IGzNNi+EDd3DHbS8l4/W03O9fj7aIhbkS5ZKiTbbtVe16PFvbzTlPzYz1AG8B3qrtVqT+vizjHuTEke+nu6jj1jqBZTn09R5mdXWO1bVZ4iRsqd8/ihIMwPdDLMvCdbV7VLbs5QCved19X/7ogw9X2+mGteMM22AabCICmEaG/u7n0tt9qwajg3hujrvveDmHD9xLKy4bHQQRtVrE0mKZ0npNd6hsx1vSFmizt95tJL1A7i9oWxWpMwyT7sKdHB66X4PRYSzLYfjA7dx1+3eRzfS23O+fJBAGEbVayNJShXVFm2zPL6RNoGBrwljLAe+lfmaoiAAGfQz03EUuO6TB6NBoGxy8lSPDz8U03NaNtmrIylKF9TVFm2zZzwHvTdtAwdZkMsAbtI2KbL5cM9D9HPq6b9NQdLBctptbj7+AXAvOsl0cbdVqyMqyok225Q1pGyjYmsXUzJgDfFDbpsgFjn2IY4deSjYzoMHo5Gy3HAb6j3Pk4HNw7LyiTTrNB9NGULA1iQ8DY9ouRTZe4GwO9D2HvHaFCpDP9XD3HS/nyMHWPAHhQrTFijbZrrG0ERRsTeKHtE2KXPQCnbmNQ0MvwDAMDYZsHst2y7EXkvG6W/iNSKJok45thJYPtqmZsT8GPG2PIhsvai4DPSfIeL0aDLkk2g4M3Mbh4Xto1Vm2q0abzh6VG/PSVlCw7bPvps0XsRfZjnz2NoYHn49pmBoMuUSxOMjRw/e35AoIV0ZbekzbUkXXaZMbvl9JW0HBtl+mZsb+F9CjbVFk44XMYbDnVjy3m1aeRZFdetWybA4M3sbh4btbfvu4+ESEpcUKpXUtYyXX1ZM2g4Jtn2Lt+wBb26FInescZqj/fixTDwu5uu6uAxw5dF/Lz7JdHG21WlhfEUFrj8q12cD3tXK0tfKz+gnA0TYosvHiZXGw/048twvNrsk136WbFp6bw7E9qrV22O7r0QawOF/CAHJ5V3e0XI2TtkNrPnZb8Zeemhn7NHC7tj2Rix7MxgBD/c/HtvRiJdfX33uYwweeg221x0XgkwQCPyLwIxbmS1TKge5kuZbb04ZQsO1BrP0lOtFA5AoDPbfiOnk0uyY30tV1gMOHnkM201ZLLeKn0TY3u65ok2uxgO9OW0LBtouxVgCKtNmi9SI7nmGgi0JuEFPHrskWGIbBgcFbOTh0J4bRXtuM70eEQcTs+TVFm1yvfYppUyjYdskngBdrWxO5VCFzhMG++7CtjAZDtqSr6wDDQ3eR8bra7rb5fkQUxpvRliS6v+UKL06bQsHWaFMzYweBnLYxkctZDPXdgmtnNRSyLa6bxbUztONu9IujrVpRtMlV5dK2aAkt8Sidmhk7BnyENrjwnUjDH8TGAM+/66foLhxp/RuTJMQXvbImcQzU/55Qv2DqZf9B/XMNeDU2TOsqY2tceJI0jHSpr/rnDNNo+dBZW5vjy1/9JE9++/NEcXtefNZ1LSzbZOhAkUzWQau1yWU+C/z06MjkqWb/RVvl4IX3KdZErq6QPdASu0KTJCFJ4vTPC/+HhCSOSYA4igiC2maY+bXK5sdREhEEl15nK4ljwjAgSeKdv7B72StizbYcrDTkTMvCth0Mw8Q0TWzHxTStetRthJxhYBhgGCaGYWCazX1uVLE4yJFD93Ju7jFW1s605ePD9yNcYPb8GkMHimRzuhqUXOK708b4cQXbDk3NjN0NDGmbErn6Q3ig5xY8J980v1EcR8RxXI+wJCFOYpIkJopCwsAnjEKiMCCKIsIoSJcZ8onjaH9f2GuVKz63lTkny7IxLRvTtHAsB8M0cF0PwzDxvGw98CwLMDDNjZAzmybmBvqO0NN1gJW1s2zMZirapMMMTc2M3T06Mvmogm1n3gK8QtuTyJUMo4euwgnsfTh+LYljoji6EGhJTBRFBEGVMAg24yyMAsIwoF0PIoqikCgKrxt4jpvBNC1c28WybWzbxfMyGKaJYZhYpoVhmliWhbHHa8A6TgbP68I0HeK4fVcKULTJdbwibY3XKdhu0tTM2POB49qWRK4ul+nHtrzdj7N0hiyK6oEWRRFRGOAHNUK/hh8G6ayZLqNwNYFfTYOudFFsG5iWjW07uI6HbTs46Z+mZWGaFpZpYVk2hrl7EVcoDNDXcwzX+RrVWnsv7bQRbXOzawwOKdrkEsenZsaePzoy+VUF2835GTS7JnINJl25fhy78cevxXFEmO62jKKQMPQJ/Cp+4BMG/iXHmcnNRnBSj9wwoFYtX7hXTRPbdrEdF8d2cV0P2/GwrHq82bbT8N2pxXwvGS9Ptbbc9uPu+/Vd7/Nz6/QP5LWMlWx4Rdocb1SwbdPUzNhLgXu1DYlc6wXfI5sZasgMWxzHhKFfj7QwJAhq+H6VIPDxgxpxustPdl8cx/h+FT+dlYP6cXKO4+I4Hq6bwXE8LNvBTnevmjucgRs+cDu93YdZXj1Dux7HdrVoW5ivz3gq2iR179TM2EtHRya/qGDbeqy9DPg1YETbj8g1HrxWN/nckZs6fi1JEqKoHmZhEOAHVQK/hu/XCILavp8AIJfaOE6ums7EWZaN7bi4jofjeDiud2HXqrP9+Mjn+ygWD2BZHlFU7Ygx3Yi2xYUySQL5gqJNGAHePTUz9iujI5NfULBtzT9Fu0JFrivndeNs43IeSZJszpoFQY3Ar1JLAy0KdexZKwZc7aKAcxy3fiFcL4vreji2i+O4Wz7+LeMWcDoo2ACCICIBlhbLQEK+4GnjklekDaJgu5GpmbF/jK65JnJD2UwRx77xrECtVsGvVan5VfxamSD0CQI/vSittFPAVatlDMOsB1sacF4mu7kb1bjOVWN7uofJZotU/ZWOGbckgTCoz7QtLVVIgIKiTeqLw//j0ZHJv1KwXd93AS/X9iJy/YduIXcI17n62sW+X6VWq2z+P/BrBKGP1ufphAiJN+93w1it7zJ1PDwvg+flcL2rx1tXYYCMV6S+ekPSQeN1IdpWliqQQKGoaOtwL09bRMF2LVMzY68AXqVtReRGcnjuINZFJxzEUUSluk6tVqFaKdVPHAgUaZ0db8nmCQzl8lr9xAXXw/NyZDM5vEwOy6q/DBQKfWQyPRiGSZJEHTZO9WirAizXL6CsaOt4r5qaGfvi6MjkZxRsV3cf8FJtJyLXZ5k5TLO+O7RWq1CplKhWS/i1CkETrBogzRglF84+rVTWKdkerpchk8mTyxXxvAKFXD+W5RKGlQ4cH0WbXOKlaZMo2C43NTP2SuCntY2IbOGBa7n4tRrzc2eoVuuzaVEU6tposiVxFFGLyvh+hUp5nfX1ZTKZHHEcYxpWx45LPdpiqoSKNgH46amZsX8YHZn8tILtUieAB7R9iFyPAUkGI7FYX1ukakSdNZtmGFiWvbkg+/W+rr5w+6VnSEZxRBiFN9xNnCQJQVBr++FMkiS9/p5PrVpmbW2OKPI7+hFWX9tW0SaQNskJoCmCzWiGX2JqZux7gd8C7tH2IXL1h6pBDsfqJuscxbOGsM0chtGaS+tYtlNfcikNKzNdP9N26ssyGelTk+N46cLpF7eYed2zHetfY9T/f9lTXEJCksRbOqzv8hDeWLx+w8ZFhgHipB6CSZIQRxFRuqh9qymVFzk3/yjn5h6l5q+RENFJJyBc1vzYjkUmY9Pdm9XZo53rm8AvjI5M/uV+/yLNMsM2rFgTudY7fgfb7KHg3UbGHsYyMk0baoZhbMaYbdlYVvqxbWOaFrbjYm4El2FiGFwSVoZpXhJZ9cXRjSa5H5JLLoVSD7/kohBM0hCsRyFJ/fjCJIkJw7C+DFUS1Y8xjCLCsPlmsvK5Po4dfICh/juYnX+Cs3PfoBasAXEHPu4uHNOWLFUwQNdp60z3pI3SBG/b91l67Nr/jRZ5F7nKAzSHYw6Scw+Tc442TahtrHXpOi6mZeE6GWzHxbadS2e3Nj5O/76bi5g3oziO04BL0rhLiOONP+PNZcA2V50IA4LAb4qYC8Iqvl/m7Nw3OH3+HwijUmc+BtOZNs+z6e3LaUWEznQS+P/s97FszTDD1qNYE7larGVxrCHyzmGyzlEMY+8frrbj4ToutuXgZbKb1/TamPmqz34ZmMaFOJMLbrTGZz3kCpdEXZIkxHFEGPjU/Gp9VYrAx/erRFs4/q5RHDuDY2e45fB3YBgmz5z7GlFU7rj78JKL6y6WMQytPdqBjqetss+vCfsove7ax4EBbQ8il7xcYhkDdHm3knWOY+z2mXuGgW07ZLwcnpfFcetXyd84zswgjTFF2R6GwoVZuY2Po3QGrlYtU00v0RHuwQWRo8jn26e/zMkzXyZJOnMZM8MAx7FwXIv+gbyirfPMAz+2n9dl2+8ZtoxiTeTK91GWkaXo3ULWvQWDxu9GNE0LL5PD8zJkvByZTB5zI86M+u+gMNvvQLjyPrBtB9fLki90bR4zF0fh5sWSy9USvl8lafCZw5blcuuRF3Pm/D/gd+i6s0lyYcH4hfkShmGQzTnaUDvHQNos+/jKsE+mZsZeDkwDOopT5JJXBhvPvo2B/Hfs+CG68YJvGCaZbJ5cJk82V8DL5Da/90agSUtvNJuTbEkSU62WKJfrF1Ou1SqbAbfTM1effuaLfOvZLwKdfWFm17WwHZPBoaKirbPUgO8bHZn83H788H2ZYZuaGbOp7w9WrIlcEVk2tpm7qYi6+LiyjUDL5ApkswUNbHtvNWxMxhmGRS7XRS7XBdQvT1KtlqlU1qlULszAXdjlunXHj3wHz5x7mCBc6+jR3phpmz2/xtABRVsH8YCeqZkxe3RkMuyIYANeAHxS973IlUzTwrWy23ihNjBNE9t28DI5crki2WwB29aLiNS3p1yuSC5XBCAKA0rlNSrldarVMlEUECcxSXr26vW3NpNDQ8/h5Jm/7fhx9f0I96Joy2QddBRBR/gk8BLgS20fbFMzYx5wVPe5yLVfFrfyImyaJo7j4WVy5PNdZLN5DMPU8Ml1WbZDV1cfXV19xFF99q1cWadSWScMasRxvHk5ElG0yVUdnZoZ+9royOSeLoeyHzNsdwJ/ovtb5BqxljiYxpVHCximiZVefDabLVIodOO5mY67tpk0jmlZ5PJFcvkicRxTS+OtXF4lDHziOErjTRRtcpE/ob4w/NfbNtimZsYy6Y0UkWs9KM0CGedIPdI21s60HTwvR6HQRSaTx7LstrvdYRgSRRcOZk/i+goBAJlsFtu+9DYnSUK1WqFSqTTk52czWbK53FV/r0qljGkYmJZ9ybXVLNPEsu22OKPWNE2yuQLZXIGengEqlRLl0irVWpkw8IniaM+uAdfq0aZj2jrCfVMzY0+MjkxW2zLYgMPApO5nkRu/eNq2i+tmyOaK5PNFHKd1ztFJkoQoigiDgCiOCdNLQURRRBTWoyyKI+IoJkl3va2trlIpl4nTKIjCgNXVFcDg+Q+8kIHBwcteJH2efOIJHnnk4Z2Pt2HynOfcy3Pve/4V/7a0uMhX//7L2LZNNpfDcS/cD7lcjkKhsLneqW3bF9ZFtS1M0wIDHNup36eOc0V4NiPLsikUuikUugmCGqX1FUrldQK/snn7RNHW4SaBLwJPtV2wpbNrr9B9LHL9h6TjdFHs6qeQ70qvj2Y13W/p12r1IItCMpksjnPpi1MURZw/d44zp5+lVqtRKtXPKqxWq5szYtVajVqtVl938wbxeuedd8NlwZbEMdVKheXl5YYE8rVm6srlEk89vbXn5Hw+j5Oe7JHL5XBdF8MwKBa7cF2PQ4cOcejIlYfwBoFPpVzBSYPOcZvnoqyO49HTO0RXVz+Vyjpnzvdjmg5xHOjhqmjrdK+Ymhk7vVezbHv5Vq8P+EPdvyJXTQYss0gxf4Shvu9gaPDIvv9GtVqNwPcJgo31LcP6/6OQleUVarUafrXCPc95LoMHDlzy34ZBwJkzz/KVv/+7jroXS6UL620uryxfEYUkL7hqsC0tLvL1h79GPl8gm8tRKBaxbQvHdrAdB9dx6mcBex624+zLLtj68W5d3HbLAywsP8PC0tPUgjJJEurhe5Vom5tdZ3CooGhrb38ITAFn2i3YROQqDByymcP0d9/Pgf47KOQO7unPD4KASrlMGARUa1V8v0YQhqyurFIurVMplymXy1RrVaq1ajorlmxGyPFbbtOduEPlcpknnnz8ks95nkc2kyWTzZDP5slksxSKXeTyeTzPxXM9HNfd/Drb2f0wMAyDAwfu4MUPvJpTpx/h7PlHmV/6Fn5Q0p14WbQBzM+taxkraa1gSy/l8VMabpHLY82lu3Anh4e+i8G+O/fkZ8ZxzPr6Ggvz8/h+jVKpzOrKMtVqhfXSOuVSiZrvX3ICgOy9WrrLmJVLP2+aFtlMhny+HnH5fIGuri4y2RzZTIaBgUEKxeIuRpvJgQO3MzBwC+fO38Ejj36WM+f/gaq/qjvtKtG2MF8iAfKKtnb1U1MzY7+5F5f42KsZtizwHt2vIpe+8PUU7uaWQ99Dd3F3Lk0YhuEVB7mHYcizp07x0ENfplKtbp6JKa0hjiNK5RKl8qWzWpZlUcgXeMELXsRd9zzniv8uSRLiOMZq0DGRlmUzfOAODAxsy+bU2a9Rra3oDros2hJgaaEMCeQLirY29B7g96kvW9XawTY1M2YBE7pPRS7lOYe49fAr6So05ni1KAxZW1tjbW2V9fU1qtUaR48eu+LsyjiOKZfLrK2v605oI1EUsb6+ztra1We6lpeW+Na3niSfy1MoFCh2dZHPF3a0K9WyHIaGTtSDkISTpx/CD7RdXfIGKajPtC0tloGEfEErMrahiamZsXeOjkzu6m6JvZhhs4C36f4UuZjLQPdzdxRrURSxvrbG6uoya2trrK6usra6wurqKuuldWq1Gr29vVcEm3Sm5ZUlvvKVvyPjeRQKRYrFLrq6uykW6x93d3eTLxS3PQNn2y5DQydIkhg/qHDy9FfQKgkXJMmFaFteqpAABUVbu3kb8C6g5YPtXYAu3CNy8QPPOsDBwedt+7+rVausrCyztLTE0tIiqysrrK2vUiqVqFYqm9cwA9riYq7SWHEcU65UKFcqzM7NYpommUyGQr5AoVCkp7eHrq4eenv76B8Y2PI142zb5cCB27llfZ7T579BGJY12FeJtirAUgUSKBQVbW3ETFvnza0ebD/LVhZHFOkgfV23kcsObelr/VqNhYV5ZmfP1yNtdZX1tTVK5ZJODJCdB1x6FvDs3CzOMzaZbJZioYue3l56e3vp6elhcPAAmUyG6625ZNseXV0HyHrdrCnYrh9ty/Vr/ina2oaRtk7rBtvUzNhvAxndlyIXP3HbdOX7r/s+JggCFubnOHv2DAuLC6ytrLC6tkqtVtPajrJrgjAkWFtjbW2Ns+fOks1myedyFItdDAwOMjQ4xJFjx6/53+dzPQz138Ja6awG85rRFlMlVLS1n8zUzNhvj45M/nxLBhvwY+habyJXPOx6u05cdZel7/s8c/LbfPvk06ysrLC2tkq1Wt287pnI3sVFTLlcolwuMZe+ecjn8/Q/9STHjx7jttvvuOK/KRb6GR6+kydP/S0GemNx9XFNFG3t+sReb56WDTYRuYxhdOF5vVf9N79W49Spkzz11JOaSZOmUqlWqFQrLC0vEYfBVYPNshyymS4s0yGOaxo0RZs00K6dDDA1M/bfgB4NschlwYZ7nSfymCDwFWvStOI4plbzr7uFG1gaqC1FW0S1GrKyXGF9XYHbBnrS9tkVuznD9p2ArhIoIiJy1Wi7cCJCslTBAF2nrbW5afvsil2ZYZuaGfsEcFD3nYiIyI2jrVYNWVqsUFr3NSit7WDaQA23WzNsd6HZNRERkS1HG8DSYgnDQAvGty43baCWCTYRERHZZrQZ1BeMx4BcTtEmFzR8l+jUzNj/Bu7U0IqIiGwv2nw/IvAj5mdLVMqBBqU13Zm2UHMHG9ANOkVIRETkZvh+RBhEzM2uKdpak5W2UPMG29TMWDfazSoiItKAaIuZPZ9Gm66d3WrstImaM9iAPwfu0/0kIiKy82iLwjTaKgFa8KSl3Jc2UfMF29TM2BEgq/tIRESk8dFWVbS1mmzaRs0VbMCHgRfq/hEREVG0CS9M26jpgk1ERET2INqk8zQk2KZmxu4H+jScIiIiux9tOnu0ZfSljdQcwQa8E+0OFRERUbTJxV6YNlLTBJuIiIjsYbTNza5TLmvt0U6x42CbmhkbAY5pKEVERPYu2sIgYmGuRLmkaGtyx9JW2t9gA94APKD7Q0REZG+jLfAjFhZKlBRtzeyBtJV2RKsSiIiItGq0BREJsLRQhgTyBS0Y3652NMM2NTP2g8C9GkYREZF9kEAYRNRqIUuLZUrrNY1Jc7o3bab9CTbgXwDP0/0gIiKyT812UbQtL1VYX1O0NaHnpc1007RLVEREpE2irQqwXAGgUPQ0MG3kpmfYpmbGfgL4Lg2hiIhIE0VbNWRlWTNtTei70na6KTuZYftO4C6Nv4jsxytTHMeYpkE2m9n5O1fDxDINoijEsrTjQVo92mKqhJppaz53pe30sb0ONhGR7ceRaeI4DqZpYpoGnudgmhYAjmPjug6GYWx+fS6XIwhLnD3z9CXfJwxDcnmbe+65oyG/VzbvcP7cSQzDvOznlLjnntupVKqbn4vjBN/3CcMIgCiK8P2AOE5Ikhjf94ljrdAt+xVtiaKtDd1UsE3NjL0e+EENn4hsiMKQMPRJkoRypYTrWhw+fBDXdbAsE8/zcBwbwzAwTZN6kxlYlrkZaKZpYlkmcCHYbNsijn3W16+8zpRtm/T2djfsNpRKq1f9/PDw0GacpS+JRFFMHMebL5BxHJMkCUlSD7iNkCuXK8RxQhiG2I7J2uoSruthGAaW7WhGTxRtneUHp2bGHhodmfzwngQbcDdwXOMu0jlM08TzXDzPxXUdPM/D81yCoMSzzzyRxkqcxktEJmNx661HN+PMNC1M02jZ2+662z/kN0mSNPQS4jjBsR0WFs5szigaholpmfh+mdtuO0YQBNSqPr4fUK3V0lm7WBuf7CDaLjoRwYBCQdG2z46nDbVtemsnIpdwXZds1kv/zOC6DoVC/pLdmPU/6x8nBFQqwVUix8DzOvsinoZh4DiXPs0GwdWvSH/kyCGSJCaO67N19f8nBEFAtVpjfb2EX/Op1mrUavWoSxLtdpUbRduFs0eTpQoGkFe0taRtB9vUzNg48FoNnUiLP/hti3w+Ty6bIZP1KBTyZDIetm1jmkZ99if98+LdlrIbYccVYXfhBXcj4Po3Y64+m5mwurpGpVKjWq2ytlai5gcaTLlmtAEsLVbAMMjntSLCPnrt1MzYt0dHJn9nV4MNGAIGNd4iLfN0TeD7BEGNarVMtValuzfLi1/8wOYs2Uacmaap4Wq6mDOwLAvLsq74t2w2s3miQ/3PBC+T5dy5k2S8LLbj4nlZHEczKoq2C9G2uFDCAHKKtv0ymLbU9t5ka9xE2otpWeSyGbq7C1SrKzz99DdJ4vpxVBszMyRJQy6HIft8X5sm9ca+OOZi1teWKK0vA0YafDbVao2DBw+wtrZOtVq97CQK6ZRoC4IIA1iYL4EBuZyirVVsK9imZsbeBLxFwybSHAyjfpxYPp+ju7tIsVigq6u4uQvTNCEMdPHMznthTi45vi2KQmwL7r77BEmSEEURpVKZpaUVVlfXWVsrEQQ6Jq4zNg7w/Xqsz8+WGBwyyOYcjcvee8vUzNjS6MjkB3cl2IBM+n8R2eMwM4z6n67rUizm6enuorevh2w2s7krU8eZyfVsbCeWZeG6Lj093WngQalUYnFxmZWVNVZX1wiCkPqsLAq5NrQRbbPn1xg6UFS07b1t95R2iYo0baDVjymzbYtiIU9vbzc9vd3k8zkdayYN287qf0KxWKBYLGz+2+rqGktLKywtrbC+XiKKIl0MuA2jzb0o2jJZB73na15bDrapmbEi0KshE9kdSZIQJwmOY9PVXaS7q0hfXw/FYgHX1btf2VtdXUW6uoocP36EMAxZXl5lYWGJtbVSejHjCMPQ2cOKNtmB3qmZseLoyORaQ4ON+qU8dPyaSEMjLSaOYqI4xK9VKZWWOHR4kCNHhzQ40jzv7G2bgYE+Bgb6gPqB63NzpykUunHdDKZhYlrWFct6iaJNrustwGngtxsdbCLSIGEYEIUxtWqJcnmdSqVEGNYvqNqqqwFI53Aci9WVBdZWF7Ftl0wmRzZXJJvNE0X1Y99E0SYNfuO0lS+amhk7AJzQcInshIlhuFiGxfz8GfyaTxTqQqfSupIkIQhqBEGNtbVlbNthZWWehJj6erAKt1aONp2IsCdOTM2MHRgdmTx/41eQrflB4E0aV5GbiDQ8TKOAYx4hb99DwR2mXFpTrEm75Vt9ljgx6Os+RlfhEI6dxcBM401aJdqiMGb2/BqVsp6j9sCb0sa6Ie0SFWk4A7CxDBdwca1DuHaRnHMM09BFKqW99XYdobfrCOXKEufnH2dp9Rl8v4QflgjCKpp1a41o00xb81GwiTTMxmyah20OkLH7MU2bjH0Q09DlC6Wz5LK93Hr0JQyVb6dUXmS9ssDy6rP4QZmav0YY1RRvLRBtc7PrDAzltSJCk0wFXNfUzNgJ4N8CP63hErnaQ8jGNDxMI4NrHcCzevHsQSwzr+ERucja+ixVf43V9VmW155hvTSncGtyrmvhuBb9A3mtPbp7PgL8h9GRyaeu90VbmWF7iWJN5Gqh5mIZGRyzH88+gGW6OFYPtlnU8IhcRbEwRJEhBvtOsLp2KwvLJ1lafYbV9XPEcZCerCDNZGNFhIWFEgmQV7Tthp8G/l9gx8EmIheFmoGHZeaxzT4y9jCe3YNtdmtoGqy+sLnF1XYEbCxo3nBJQhhH9bWaLv8nEpI4Io4VFY3QVRymqzhM39oxllaeZWnlGaLYZ7V0niQJNUDNFG1BRAIsLZQhScgXPA3KPlCwiWwx1CCLY+axzR6yzhFsM49j9WhorjVipoVlWpvxtfExhoF12UVWbdvBuGy5LdO00mC7SswZ5u4EGwlhFJEkV4+yOI6I4+jSz0X1z22st5kkMVF0IfrCOP1+ydX/+07XXTxId/Egvd1HiOOQb5/+MlFcY3Vd4dY0EgiD+na7tFQhAQqKtn15FbqmqZmxe4FfZ4unnIq050PExTG7scwe8u6x+m7QTg01w8C2HDDAtmxMwwTTxLbqF9k00o8xwDAuBNcVwWZaGBddINi2rgy2VhHHEXEUkaTHYSVxnAZc/d+jNNiSNNiSuD5bEUfR5kVmoyhM/7uYMA7ry5RdJxzb2craGeI4ZmX9LPOLT2nGrbke/tiORSZj092TpVBUtDXQp4BfHh2ZfORaX3Cjt6h3Ktakc5mYRjeu1UvBvR3TcHCs9l5O17QsLNPeDCzLttOZLhvLtjHSmS3DSGfADDONuPpTiWHu1sxXE4/ZdWYCtxp6cRTXlylL4s3Zuvq/x0RRQBzHRFFIHEfpIuwRYRSStOFsXXfxUP3ProMUc4M8e+5rBGGZlfVzoGPc9lWSzrRVAZYrAIq2xvlB4L8ANx1sIh3KwrUOUnDvxja9tgo107SwbQfLsrAsB8u2sUwb23YwrXp8GIaxeQyZaaR/mvU4k10IPedaL5DJhYCL6jNvURxftNs1xvermysOxElMGAREcUgctXbMmYZFb/dRXCdH1V/j1JmvsLJ+VrNtiraOpWATueIJycSzDtKduR+3hUPNtGwsy8ZzvHqUWQ6242KlUbYZZKaJaVgYpomhIGsql5xcYV+96qKNkEv/3DhOLo4jgqC+/FkQ+IRRSBSFLbXChmlaFAtD5OI+DAxOnvkKK+tnFG1NEW0xVUJFm4JNZL+eiAxca5ju7H2tE2uGgW27eI5XnzmzbTwvh2Ga6a5Ne/PjjdkzaR8bQWdfEXRJuvs0TgOuPjMXhgFBUCMMA8LAr8dcGDT18XKWadPbcxTXzTO3+CQnz3xZ0bbvz5WJom2vn+qv9Q9TM2MvBP4QeEDDJJ3CpI/+3Etw7f4mnXEwsWwX13Fx3Qyum8GyHUzTqs+cGWZHHkcm23uhrZ/8UD/JIU7qMRf4NXy/mi7mXg+5Zoy41fXzPPHtv2J57TSgM273//2ige2YOhGhMR4CfmZ0ZPIrV/vH6z2rDyjWpLNeyCw8pxfHapJrqhkGluXguRk8N4PrZdJdmvYlx5W16tmVsn8vsJZlw2XnSSSZfP2M1njj5IcYv1ahlkacX6sQNsHu1Hyuj2OHXkhyOmJl/bTu0CZ4A3DxMW2Gga7TdvMeSNuL7QabSEcx6abg3Y1hWPvy8w3DwHEzeF62HmleLp09S3dnGooz2cXtzzSxL9u+PC9LIY23OI6IwpBqrURQq1KpVQj86p7/npbp0NdzjHJlKT1zVLNs+x9tF05EWFqsAAb5glZEaDQFm0gq43Rjm3m2sMRuw7huBi+TI5PJkbko0AzDwDB0EoDs85sY0wRMrPQ9TOImZLK5dBaufqJDtbJOtVqm5tcI/Oqe7Ea1TBvHyWAYJkmiYGumaANYWiyDoWWsGv6m6mqfnJoZezHwP4FhDZF0xpONTd69le7MCzANZ/feIdkemWyWTCZPNluoX+HfMDR7Ji1r42SGJEkIw4BqeZ1KtUS1WiYM/V37uSurZ3jy1F+zvPaM7oRmior04rquZ9HfrwXjb8I54J+Pjkx+6YrXj2tNNijWpLOCzaPg3o1pNHbS2TBMMpkc2WyBbLaA62UumUETaXUbs3D1NyQOnpehK+knSRJ8v0q5tEq5so5fqzR0HVYjvaBzfd4h0R3RNM+lEAQRBrAwXwIDcjlF2zYMpw3GVoNNpNPeF2IYG0/+O/s+tu2QzRbIF7rIZvNYpg2GkV5zVrs4pc0fSYa5eX3lbLZAJpOnN919WimvU66sUS6v1ZflSm4+tIr5Ifp6jrO4clLB1nTVBr5f3z06P1ticMggm3M0LjukYBMBLCNzUzFVnykzsB2PXK5ILlckm8ljWqbiTOSix4hpujjdfXR19xJFMbVqmVJ5lVJplSj0SZKEZBsBZxhGfRk1wyJOtGRVM9qIttnzawwdKCraGh1sUzNjDtCnoZGOelExLYwtBtbGyQCO45LLd5HPdZHJ5HQMmsjWHkFYlkUuXySXLzI4eJhyeY1SaSPegjTeFGHtEm3uRdGWyTpa4e7G+qZmxpzRkcngusEG3A98QuMlcum7+frFaW2yuSLFQjdeJp8evyMiO7ExOz04eJhSaYVSaZVyeZ04Xfg+SbTLU9HWUT4BfAfw5RsFm4ikMwGmZWJbNq6XpVDoJZctYNl62DRSGIYkcZyu0HD9pbPCMMT3N848TIjj+lX7G2FzgXvqZ7o5jot9nfu6vn5ntOXfXbYmn+8mn+8mDAPK6axbrVauL7OVxDs67k0Uba1Mrzwil2eaYWLbNrbtkcsXKBZ7cRxdufta4jgmCIKNiiHYuBp+Uv+36KKgiuOYOLp0V9fS0iKVcoWenm4OHj6C67rX/Dnnz57l0Ucf2QymarVKqVxqQJob5LI5srksAK7jcsttJzh67Pi1X4BqNc6eOcPKygqZjEexuxvnovU8LevSS7VYppUe21j/eba9cTKKgW1ZmJaljeniFyfboau7n2JXH4FfZX19hXJljcCv1UNZu0xbPtqyWUeH+irYRG5ihsWycJ36CgPFYg/ZbKHjX0STOKZSqdRnwZKk/icJcRQRxfXZjmq1yvLSElCfAVtZrn8cJzHVapVKpbL5/arVKpVq5ao/68StJ+jrH7hmsCVxzMrKMk88+cSu3NbFpcXNj7PZLL19fdcNtnK5zDcf/QYnTz591X/P53I4jrs565bNZMnlcum2ZlIsdmPbNpZlUSgWyab/thF2pmGks3YmjuPgZTIduQveMAxcL0ufl6U7Gtg83q1WLWOaityWjzadiHBzwTY1M1YAXqZhkc7i4TlFeroH6SoewMvk2nrXVpIkBEH92CDHcbCuE6WVSoVH/uFhlhYXCaOQ9dI6cRRTq1Wp1mo6tug6SuUyUN78+xJLW4gTk4zn4Xketm2TzWZxbIehA8PcfsedFIrFa/63cRRR830s08T12nNG2LJsisVeCvluarUKiytPY1kucRiiS3so2trMy6Zmxh4dHZlcv2qwAceB39I4SWdwyLg95LO30999gv7+I1hWe1zgMYoiarUaYeAThiFBEBJGIVEY4gc+pbX6c8CRI0fpHxy8dnSUSjzz7DPMzp7X5rInMR1TqVaumIUMgoAjR49eN9hWV1d5/LFHcT2X7p4eDMPEdV0sy8JxnPqxmK5bj/QWPw7TME0y2TwHh+/klpUXMjf/FGvleaLIV7i1WLTNza4xOKRou4rfAv438Mi1gk2kA5jYVgHPHebQwAs40P9cbDvbkrekWq3i16oEQUDN99NQq+LXfFZWlqmUS1Qr9d2Q1Wq1/m/p8WbdXd3kcrnrBpu0juXlJR766lc2Zz1N06RYKOK6LrlcHs/zKBSK5PJ5crkctm3juC6u4+A4LplMBsd1W2p2efjA7XQVBzhz9jFOnX6Yc3OPs16eJ44DbRAtEm0Ac7PrDAzltSLCDSjYpMM4ZNxB+nvuo6/rFrqLR7GtTAs8sflUymWCwE/Dq1Y/XmxlmdLaGtVqlfXyOoEf1Hdbxjogu9PFcczK6kr6t7lLn/htm4znkc3myOVyZDJZil3d5PP1sHOc+hJTmUyGbC6H4zTv7Ecu18PtJ17CweE7eerpv+OJp7/A4sopoqimjaCFom1hrgQDaO1RBZtIPdZy3lEODb6Iof7n4jr5pvwtwyBgZWWFarVCtVqhVvMpldZZW12lWq1QKpUol0vUfF9hJje3jYUh62HIeunSM2xN0ySThloulyOfL1Ds6iKbzeF53mbQ5QtFvCY7Ti6f7+XErd9BPt/LNx7/LOfnniCMKmgXaetE2+JCiSSBfEHRpmCTzo61zFGODL2Ewb7n4Ni5pv1NV1ZX+LsvfZFyuUSpXKJarRJFke5C2XVxHFOulClXypecNWuaFtlMhq6uLrLZLHfeeTe33Hai6X7/jWjzvDxPn/wK3zr1JSrVZUVbCwiCiARYWiwDCfmCLqV0uc1zxKdmxnqBN2pIpB0381zmUFPEWq1aveGZlZVymW+ffJrZuVlKpZJiTZog5CJK5RJnz53l5KmTLMzP3TD8/FrtwvX59tiRQ8/hBff9M4YH78IyNVvTCpIEwiCiVgtZWqqwvq5d2sAb0zYDLp1h6wF+VuMj7cZz+jnY/0IG++7Z01jzazVKpXVWV1dYW12lVKnQVShwx133XPcK+iKtrlarcfLpb7G4tEhXVxeFdNdqV3fPnh0Pl8/38dx7vpdarcS5+Ud1IkILRRvAylIFEigUO3qm7WeB/wj1awLpVUPaXIZc5gjdxeM49u4esxb4PqurK6wsL7OyusLq6grlUolS6cKuzbvvvJsTd9ylu0XaWhgEnD9/jscef/TCyQ35PMViF11dXXR1ddPT00t3T891rwO4U4cP3s3a6hyr67Osl2fRrtHWibYqwHL98jYdHm2bFGzS3rnm9tLffSe5TN+ufP9Kuczc7HmWl5dYWl5mbXWlflJApYzv+7qwrHS0+jFxFcqVCguLCxiGgZcGXD6fp7u7m+6uHnp6e+jr7SdfLDb8siLHjt7H0898lUp1kUizbIo2BZtIEz7osfHcPor5YewG7QqNooiV5SXm5mZZXFxkeXmJ9bU1KtUKtVpNx5uJXPeFuL6UWbVaZWlpkbNnz6QBlyWXy9Pb20tPTy8HhoYbdn3AXK6b2449wOzC41SqS7oTWiraYqqEijYFm7Q7y8xTzN1CPje040hbmJ/j9OlnWViYZ31tnXK5RKVa2beDqkXaQRRFlMtlyuUyCwsLnDt3Nr18SIHu7h4GBwY5cGCY3v7+HR37dvzY/Tz61Oep1lZJEr2paqXAV7Qp2KQDeE6eYm74pi6MmyQJz546yblzZ5lbmKe0Xo+0Wq2ma5+J7JIgCAiCgPX1debmZjn97DNks1nyhQLDB4YZPniIwcEh7G3GWyZTJJ/twTRMIgVba0ebAYUOveSHDTA1M9YHfFybhrQT18mS8bZ3osHs+fOcOvltzs2eY211pb70k45FE9lzcRxTSq9FuLC4wOz58zz++GMUu7o4OHyQQ4eP0D8wuOUzro8feR7PnP0Kka9Z8daMtvSYtqUKBnTSddo+PjUz9v2jI5OLG1u6C7xIm4W0D4usd4BC/uCWvvobj3ydZ06dZGl5iUqlokgTabIX7Eq1QqVaYWV1hdnZ8zz2+GP09fZx220nOHr8lhuuvJDLFsGwNJgtuw1cOBFhabECGJ2yIsKL0kbTLlFpVzaGmd/yRTMff/wxZmfPa3enSJOL43jzxIW1tVUcx2HowPANg+3AgTvw3G5qtTV0eY/WjjZIV0QwIN9Ba48q2KR9g42tP5CDIFCsibSYKIoIw3BLs+G27WFqhq2tom1xvoRB5ywYr2CTtmVgaBBERNow2gI/wgAW5ksYhkE257T97TZ114uIiEir8f2IwI+Ym12nUm7/k0kUbCIiItKy0RYGEbPn19o+2sypmTEDOKC7XURERFox2qIw3oy2NjzB/8DUzJhhAkXgq7rLRUREpNWjrVppu2j7KlDULlERERFRtDU5BZuIiIi0ZbQp2ERERESaPNra6UQEBZuIiIgo2hRsIiIiIvsTbXOz7RFtCjYRERFp22gLg5j5uXXKJb+lb4uWphIREZG2jjaoL2MFrbv2qIJNREREOiLaFhfKJAnkC60XbQo2ERERaXtBEJEAS4tlICFf8Fou2H5Fd6OIiIi0sySBMKjPtC0tVUiAQutE26/YwJt1N4qIiEgnRdvKUgUSKBRbItrerF2iIiIi0nHRVgVYrgCtEW0KNhEREVG0NXm0KdhERESkQ6MtpkrYEtGmYBMREZEOjbakZaJNwSYiIiIdHm0X7R41mvPsUQWbiIiIdHi0XTimLVmqYEDTXadNwSYiIiKKtouv07ZYAYymWhFBwSYiIiJyRbSVMYzmWXtUwSYiIiJyWbQZNNeC8Qo2ERERkcuibWPB+IX5EoZhkM05+/o7mbpbRERERK7k+xGBHzE3u0alHCjYRERERJo12sIgZvb8/kabgk1ERETkBtEWhReiLUkUbCIiIiJNHW3Vyt5Hm4JNREREpMmjTcEmIiIicpPRpmATERERafJo26sTERRsIiIiIk0ebQo2ERERkR1E29zs+q5Hm4JNREREZAfRFgYR83PrlEv+rv0cLU0lIiIissNog/oyVgmQ34W1RxVsIiIiIg2ItgRYWihDAvlCY6NNwSYiIiLSAGFQn2lbWiwDCfmCp2ATERERaSZJciHalpcqJEChQdGmYBMRERFpcLRVAZYqkEChuPNoU7CJiIiI7Fa0LVeAnUebgk1ERERkV6ItpkrYkGhTsImIiIjsSrQlDYs2BZuIiIhIk0ebgk1EGscwsG0L17ny+kOua+O6zlX/M8dx6O7Js7o6T6W6do0nvRjTirnjjlvJ5bJYlrUrNyGKYqrVKpadMDt7+ppfV6tV6e0tEAQHCMPwGl/jE4YRSXLJLcH3g2v+NyLSrtF20TFtxvbPHlWwichFTyg+URRu/j0IKvT0FDCM+mnq+XzuklDyPI9M5tInHcM0MI0rV70zTQPTNK/ReQa2bVOprFGtrl/rN8SyYg4dGsayTAzD2LVxiKIYy4K11YXrfl1PT5FCIUtyaZFtiuOYOE6uuB1Jklzy+SRJqNVq1GoXlrUJgoBazSeOY4pdOXy/QqW8vnm7LdvGtt1dGwcRafRzy4UTEZKlCgZs6zptCjaRNuW6Do7jYhjgeS6uawMGjuOSybh4nkcUVzh16jE2poCSJL4kPqIoYnh4kKGh/nokWCZgbCnCbu4JLeYa7XPhScu2dnXcjHSWsB5c0XW/1rJMLKsxVzO/PO6SJNkcD8uyqFRW8P31S35P46IwDsOIO++8LY0/H9+vkSQQBCHVqg8kBEGA7wd6cIjsc7QBLC1WAGPLKyIo2ERaiGGaeK6LbVubEWYYBvl8HsuysG2LQiGfvpgbm7Mvpnnh44v/zTChVi1f92c6jp4m9oJpmlyvfeM4umFAHjw4dFHsJZBAwoXZvI3Ph2FEpVIlDEN8P6BWq5EkMZVKjSAICcOQWs2/5syhiDQq2koYBuS2sPaonolFmuZBnBAENeI4oL+/l0zGxXVdstkMtm2TzWZwHId6d21EVxpyhrn5cSNnvKS1bPW4viSBQiHPxu7Zepdd/nH9a1dWVomiiFKpQhgGBEGEZZn4fhXXzWjQRXYQbQb1BeMxIJdzFWwizSKMQirlNaoVgzDwCUKfMAoIQ58oDEiS+q6x5z3v7jTKuGRmTKQRLmxXN96mBgf7N99QbMScaVo8c+pxDMPAtGwcx8O2bFzHw3IcatXa5rGQInLtaPP9+kzb/GyJwSGDbM5RsInszgufsfkCuPHiV99V6ZDP5/A8j1wui+c5FAoFbNtibu6ZSx6wkNz0TInI3m3jl8bdxu7ZKAoJ/OrmG4wNR44OcvBQH+VyhVKpQrVapVyuUKv5lMsVwjAkSbhkt6t2wUon2oi2udk1BoeK14w2BZvIFl+0Lv6/aZrp7sr6WZKFQo5CoUAuV999ef13VXpRkracL7jkhJGNM3+7uop0dRWv+OooilhfL7G2VsL3fdbWSlSrtfTYuXgz5jaPxxPpgGibPb/G0IEi2axzxQS4gk3kGmFWPwjcwLLqB/Lnc1ky2Uz943xWs2AiO2BZFt3dXXR3d13xhmZpaYVqtUalUmFtrUSt5hMEweaZtAo5addocy+KtkzWuWTWWsEmnTsfsPmkH+M49YP6Xdcll8uQz2fTMMtfcZ0xEdndN019fT1XPFZrNZ/19RKlUplSqUKlUt+9atsWSRITxzGmubXj8kRaMdoUbNJRgVa/NEJMksSEYYDvVwlqVW655TCOcwzXdTVQIk0YcZlM/fCDgYG+zc/Xaj6maVOprAIRrpfBth1Mw8QwTUzT0sk60jbRpmCTthWnUZbEMVEcEQQ1apUyNb9KENQIwwvXmcrnsxowkRbjefU3WOvrS6yvL9VnIWwXz8viuhk8L4vjeunhDZZ2oUrLRls25yjYpN2YgI1puAR+laXF8/h+lVqtossMiHSAMPQJQ59SaQUAy3JwXRfXzRJFPvVdpgo3abVoKyjYpNUZaaDZGIaDQRbHHMQ2sxiRw/LynIZIpINFUUClElCplOguDpP1ipQq8yTEVGtrJEmsgJMWiLZ1BZu0KhMDD8vMYZtD2GYex/KwjByefUDDIyJXuPu27wFgduFJ4jhkceUUYVRjvTxHtbaqeJOmjjYFm7SgDLZZJGMdw3O6yNiHNSQismVD/bcDMDx4N1EUMLvwJIsrJ1lZP0u1tqJwk6aMNgWbtBADyyhiGr10ZW5TqInIjlmWw8Ghexjou5X5padZWnmG5bXTVGvLabiJNAcFm7QIE8vooeDejW15ijURaSjHznBw8B76e27h/NyjnJ79OuXqgqJNmuhVEN6nYZCm31CNborec8h7tyjWRGTXuE6WA4N3cXjoeeQy/RiGqUGRZvA+E/g1jYM0tyyu1UfWOYSBnjxFZLejLXch2rw+tHqCNIFf06ufNDkDx+wj5xzDMLR2p4jsbbT1996q5x5pCgo2aW5JjoJ3GxlnGAM9aYrI3kZbT9dhcpleNMsmCjaR67CtLlxrQLEmIvuiu3iIvu7jmmUTBZvI9TZP2/Qw9M5WRPaJ62Tp7TpMLtOjwRAFm8jVJIlH1jmOaXoaDBHZNz3dR+jpOox2i4qCTeQqjHRFA+0OFZH95NgZXCevS3yIgk3kqhunYekdrYg0zVtIPR+Jgk3kqs+POnpNREREwSZNzbUyOjNLRJpCV36IQrZPAyH7GmxrwPM1FNJsDEydISoizfFiadoYpt5Ayr54PrBmjo5MJsB5jYeIiIhI0zk/MT6d2BoHaVqbx/hqlk1E9vnpyDA04y/7SsHWNkwMw6yfWWkYGORa/vivjNtHLteNZeZ194rIvgqiXrLZLiq15Za+HXEcEScRSZKQJDGQ6M5VsMleRJppOJimh2UOkMscpL/7CJ6boafrBI6t0BERaYTDh2/j0MHbWV+fb+nbMTt/ksWl05Srq6yV5wjDMkFYIYqCNOBEwSaNDTXTw7WH6C7cTm9xmJ6uW8l4vRoaEZFd0tNzkJ6egy19G44ced7mx4uLz1KprPDtZx7m2XOPUCrPEYQVhZuCTRrBMGxsq5/e4t0cG34xhfywBkVERLatr+8IcITDh+9lfv4kTz39ZU6dfZiV1dOEUVUD1KTB5gNfBl6kIWlepuFSyN7KYN/z6e++hVx2SIMiIiI7NjBwnIGB49w29wL+/uEpTp//On6wroHZf19OG+3CKS9TM2O3At/S2DRvrBVzJzg2/D30996mARERkV0xP/80X3vk05w8/WVF2/67bWJ8+mnQSgctwTBscpnjHBt+hWJNRER21cDArdx/7/dy/PALsa2sBqRJKNiaP9ewrW4Ge59Pf+8JDYeIiOxBtN3Cfc95JUeG70PXwlSwyVZyzXAp5I4zqJk1ERHZ02i7lec/9/t1BQIFm2wh13CsAv3dd+sEAxER2dtXIMNgYOAWbj3yAJplU7DJdXPNJuMdor/7uAZDRET2nGXZ3HniZboQe5MF2zLwuxqSZnqgeHQXbiWbGdBgiIjInjMMk57ewxSyeh3aB7+bttmlwTY6MrkEfEjj00Q1bboUsjp2QERE9o9tORwavksDsfc+NDE+vXRFsEnTva/BtvJ0F49qKEREZP+CzXY5ceuLSJQM+0qj37QsLLNXZ+eIiMi+MgyTQmEAy/Q0GAo2ucpDBNCDQ0REmuM1yTS0/LiCTa7y0DCwTD04RESkCWLBNCnk+jQQ++jyIjgJ/ALwWxqafQ4208RzCx09BlEUsrh4Ht+vaoMQkX2VzRbo6urDtp3OfE0yTBw7ow1h7/xC2mRXD7bRkcn1qZmxL2icmuDBgYFpOh09BqZp4boZ1teWCMNAG4WI7AvX9bCLvViWpcGQvfKFifHp9UteEzUm0rzv6AyKxR6yuSKGoU1VRPbhecg0yeW7yee69Dwk+0pbnzT3Bmpa9PUNYzuuBkNE9lzGy1LId2HZOqZYFGwi1+W6Hl2FXkxTm6uI7B3LsskXeshkCxoMacpg+xrwag2NNJOu7n4sy9FAiMie8bwc+VwRw9DC57KnXp222CWumOMdHZkMpmbGFjVe+yuOQ5aXv81TTz7ctrfR9TL09R0gn+++4dfajkOh2MPy0hxJEmsDEZFdZZomXiaH62W39PXVSolz508ShWFbjkelusLS6iltGHtjcWJ8OrhhsElzSNL/xXHUtrexWimxurKI62Rw3BtfJLine4DVlQWiSMEmIrvLcTPkclvbFRqFIbNzzxL4tTaeRIiI9WZ5f99EaAhkP5XLa6yXVkiS5IZfazsunpfToInIrnOdDJlMfktfu7wyTxDUNGiyL8FWBc5peGQv3rWVS6vUapUtfX2h2K3jSURkV1mWg5fJbulEp8Cvsb62RBxFGjhphHNpg20t2EZHJr8EvFbjJnuhWi1TrZa2NMuWzRaor7MqIrI7bMvCdba2lvPa+hJRFGrQpFFeOzE+/aUtB5vIXorjiFqtsqXVDFw3o8t7iMiusmwH17vxMkxxHFMurxNpdk32gF75pCnUquUtHwPibfG4EhGRmw02ZwszbJXKGmHoA4kGTfY12OaBhzREsheCoEYQ1La0W9R1teqBiOzSi6JpYllbu4BCtVom1u5QaZyH0vbaXrCNjkx+BfgPGj/ZC3EcE/i1LV3GxNYFdEVklxiGiWneeJH3JEnw/RpxrEtdSMP8h4nx6a9sO9hE9loQ+Fu66KSzxYOBRUS2H2wGlnXjYIuikCgMtrRXQKQRFGzSNMIwINrCDJtp6ixREdmtYDOxzBvvEg2CWltf2FwUbCLXfceqJ0ARaYnnqzDU7lBpqmB7HPiUhkn2QpLE2r0gIi3zfCXSQJ9Km+uarjvvOzoy+cjUzNh/B35QYym7/o41irb0JOg4Gfr7D2rARKThTMvC2+I12PQGUxrov0+MTz9y08EmstfvWLfyBOi4Hn39wxowEdm/N5hxpFk22ds3ExoCERGR7b7B1OyaNF+w/S3wEQ2V7DbDNLWwu4i0BNuyMQzNeUhDfCRtrZ0F2+jI5FPAX2s8ZbdZpq11QkWkJZh6gymN89cT49NP7TjYRPZK/clPT4AiIiKX00kHzfruzbAp5oc5fPj2Dgo2E9fVKgYi0vxyuSK243bMsWzl8jJdTx5gee2U7vwmD7ZPAR8E3qQh26t4MbCdLLlcUYMhItJkLNsha3fOusYJEY6d1R3feB9ki9e73dIu0dGRyfPAUxpXERERkYZ5amJ8+nzDgk1ERERE9s92gu1B4L0aMhEREZEde2/aVluy5ZMORkcm16ZmxpY0vtIKFubnePqpJ6/7NZlslttO3E4uX7ju14VBwKmTJ1lcmNuT3931PA4dPsrA4OANv/b0MyeZPT9LFIXX/BrLtjlx+510dXff8PudefYZzpx+ds/up1tuu/2GtzNJEpYWFvjWU0/s+Xbkuh6HDh9hYGjohl87PzfHmdPP4teqe/K7HT12CwNDQ1iWdd2vK5dLfOvJJ6hWKje4L04wMHjj27k4P79n94VpmvT29XHriTtu+LXLS0ucfvYZKuXSdb/uthN30Nvfr0tySDNYmhifXmt4sIm0VLAtLvL3X/37635Nd3c3Bw4eumGwBWHIyZNP88STj+/J714sFPG8zJaC7dnTp/nmNx/B9/1rfo3neQwNDW8p2M6eO3vDcWukrp7eLd3OxS3cn7uhUCjgZTJbCrbFhXke+cbXWVtb25PfzfWy9PX33zDYKuUy3/jGIyyvLF9/u+vuuWGwJUnC0tLe3ReWZXHrrbdtKdhWlpd49NFvsLC4cN2v6+ntp7e/X0+S0nK2G2zV9P8ZDZ00tSQhjq+/zl8SJ7DFM/KTOL7h92uU+s9Jtngz67fzer/bdhapTrYwbo29m5rz97qZsSNJSOK9+z23PHbp7bjh42HL2xx7dhsNw6g/Tht5O7WklDSHjZ7asm2ddDA6MvlBdBybiIiIyE68d2J8+oO7FmwiIiIisvduJthmgTkNnYiIiMi2zaUttbvBNjoy+Tts4zRUEREREdn04MT49O/serCJiIiIyN662WB7FDip4RMRERHZspNpQ+1NsI2OTH6YLS5WKiIiIiIAfGpifPrDexZsIiIiIrJ3dhJsnwce0xCKiIiI3NBjaTvtbbCNjkx+DPgbjb+IiIjIDf3NxPj0x/Y82ERERERkb+w02P4H8HUNo4iIiMg1fT1tpv0JttGRyU8Bj+h+EBEREbmmRybGp3d0dQ3tEhURERFpco0Itt8DHtJQioiIiFzhobSV9jfYRkcmZ4BTuj9ERERErnBqYnx6Zt+DTURERER2V6OC7R3AVzScIiIiIpu+kjZScwTb6Mjk14BF3S8iIiIimxYnxqe/1jTBJiIiIiK7p5HB9nq0W1RERESEtIle33TBNjoy+SxQ0f0jIiIiQmVifPrZpgu21A8AD+s+EhERkQ72cNpEDdPQYBsdmVwBQt1PIiIi0sHCifHplaYNttQKEOm+EhERkQ4UpS3UUA0PttGRye8BHtf9JSIiIh3o8Ynx6e9p+mATERERkdYItscAX8MrIiIiHcRPG6g1gm10ZPLVwFndbyIiItJBzk6MT7+6ZYIt9Xk0yyYiIiKdwU/bZ1fsWrCNjkz+JLCs+09EREQ6wPLE+PRPtlywiYiIiEhrBNvH0YV0RUREpL2FafO0ZrCNjkz+PFDV/SgiIiJtrDoxPv3zLRtsqd8FEt2XIiIi0oaStHV21V4E29uBWPeniIiItKE4bZ2WD7YIeLfuTxEREWlD72YP1lDf9WAbHZmMgA/o/hQREZE29IGJ8enWD7ZUBXir7lMRERFpI29NG2fX7UmwjY5M1oA/0v0qIiIibeSPJsana20TbCIiIiLSGsG2CPyMhlxERETawM+kbdNewTY6MlkFPqP7V0RERNrAZybGp/dscYC93iV6GhjTfSwiIiItbCxtmj2zp8GWzrI9rPtZREREWtjDezm7tufBlnoc+BHd1yIiItKCfiRtmT2158GWXuLjGd3fIiIi0oKe2atLeexrsKX+HniV7nMRERFpIa9KG2bP7UuwjY5MhsAyUNN9LyIiIi2gBixPjE+HHRNsabR9Dni17n8RERFpAa+eGJ/+3H798P1e6aAKzGsbEBERkSY2nzbLvtnXYBsdmfwM8AZtByIiItLE3jAxPr2vF/9vhrVEl4GT2hZERESkCZ1MW2Vf7XuwjY5Mfhp4u7YHERERaUJvnxif/nTHB1vqHPBNbRMiIiLSRL6ZNsq+a4pgGx2Z/EvgN7VdiIiISBP5zYnx6b9UsF3qKeAhbRsiIiLSBB5K26QpNE2wpceyfUTbh4iIiDSBjzTDsWtNF2yph4EvahsRERGRffTFtEmaRlMFW3pdtk9qOxEREZF99Mn9vu5aUwdb6m+Az2lbERERkX3wubRFmkrTBdvoyORfAZ/V9iIiIiL74LMT49N/pWDbmr8APqNtRkRERPbQZ9IGaTpNGWyjI5NfAN4GzGjbERERkT0wA7xtYnz6Cwq27UXbF4FHtP2IiIjIHnhkYny6aa9UYTb54P0h2jUqIiIiu+szaXM0raYOttGRya8CJ7UdiYiIyC46OTE+/VUF2868F82yiYiIyO74TNoaTa3pg210ZPJRYFbbk4iIiOyC2Ynx6UcVbI3xZnRtNhEREWmsz6aN0fRaIthGRyZPAT8JfF7bloiIiDTA54GfnBifPqVga2y0nQXK2r5ERESkAcoT49NnW+WXNVtscF8NfEnbmIiIiOzAl9KmaBktFWyjI5PrwBoQa1sTERGRmxADaxPj0+ut9EvbrTbKoyOT3zs1M/ZpYASwtN3J1Vi2RTabve7XeJkMpnnj9yyGAa7rbn6/BIijiCj9/04YhoFlWViWtfm7ZDIZLGtrD03HcchmsljWtR8Krutd998veUJwnAu3M4EkjgmjkDiKSUh2/g7RNLFtG9O0MIz6/bSl+9O6cH+GYUQUhcTx7rxvu/h3zGSy2Fv9HW0bL5MhEwTEcUQYNuZ3NNLbb9k2hmFiGBv3lc3mX653ewwTL5Mh62dvMMb2tu8LgDiONx8LSbKzbWTjsbCxvVqWheu6W/xv09uZzd7wZ0hHi4CZifHp7221X9xo1RGfmhl7FLirbYPDzDLU9wruuuWVeng1mSAImD13jieeeIxTz5yiUinf1AuVYRj09vRx1113c/TYcfr6+5vudi7MzfLkk0/w7W8/TalcuukXZMMw8LwMhw4e4s477+LgocN4mcy2v08Yhpx8+mkef/ybnDl7hiAIGnqbPc/j0KFD3HnH3Rw+chTX87b9PfxajTOnn+Hxxx/j9JnT1Gq1HQV9oVDgxG0nuPXWE/QNDOI4TvO88kURSwsLnDr1bR5/4jFWV1dvOlIzmQy3HLuV2++4kyPHjumJpsmUysv8//7yt5lbeqzVb8pjE+PTd7fiL2638KA/BdwGOHooyV5yHIfDR48yfOgQTz/1JH/3d3/LyurKtr9PX28/3/PK76N/YKBpb+fwocMMHzpMb28fX/3q37NeWr+paMtlc9x3//O597n3Yds3/7Rj2zYn7riDw0eO8PWHv8rXHv4qYRg27PY+9znP4zte+rIdfR/X87jlttu55bbb+fKXvsjDX/8avu/f1Pfq6uriRS96MbeduKMpZ4Ysy2JgaIi+gQEOHT7Cl770Rc6ePbPtbcR1XV7+j76bW0+c2NKst8jNvg9N26EltewjY3Rk8p8B00CobVD268XqyNFj3Hrb9l9kbNvmu77r5U0ba5e793n3cfz4LTcVW4ZhcPDgIW6//c4dxdrFMtksd9x1N4cOHm7I9zMMg4H+Ae5/4AUNHbf77n+AwYFBDMO4qe3r9hN3cvz4rU2/G880TYYODHPvvc/Dc7c/K/mcu+/l2PHjijXZTSEwPTE+/c8UbPsXbcvaDmW/ZLJZBgYGyOVy2/rvert7GD50qKVu69EjR/G87e/GzHgeA4OD5AuFhv4++XyBY8dvaViw3X77nTe1C/R6XM/jxE3OjhULRQYGBxr+O+1mtPX09jI0NLTtMD1xxx3YjnaWyK5abuVYa/lgS32W+kGEIvsil8tTyG8vRrq7e1rudnqZ7E3NgGQyWbqKXQ3/fRzHodjVmO9rGAZdXd27Mm7FYhfGTRwu7Hkeruu11jbiedsex0I+TyabvalZSJEtimiD1ZJaPthGRyZ/FKhpe5RWks1m0cuTtBvTMDHN7c0m1s9O1aNBdlVtYnz6RxVszeHPtD2KiIhIuzZCuwTb64FJbZMiIiJykcm0ERRszWB0ZDIA3qTtUkRERC7yponx6aAdbkg7nUNdBX5P26aIiIikTVBtlxvTNsE2OjJZBt4C/CdtoyIiIh3tPwFvmRifLrfLDbLb6d4ZHZlcnZoZ+y3g57Styl5xXY/+/oFtXZagq6t7S+tANtftdBkaHCK/zWvOFYtFMpnsrvxOGc/j4PDBnb9zNU28XbremZfJMHxgmDDa3jW++3r7buoitPs6A2BZdHV1bes+6erqwtb6ntJ4vzUxPr3aTjfIbsM7aQ54L/XZNpFd19XVxXPufR6Bv/Wry+TyhZa77lShq4v7n/8A0TaXgrJsh2KxuCu/U09PLy95yct2/o0Mg+6enl35Hbt7enjRd7yEJNneGpuO61LchevX7WrUOw7Hjt/CwDZW8LAdp2UuDiwt471pC7SVtrz4zdTMWB/wS8Avt+pt0OLvIiLSLFpo8fdfB94/MT692G73QVsu3DY6MrkIfFIPMRERkY7yyXaMtbYNttTjwDu07YqIiHSEd6Sv/W2pbYMtnWX7T8CvahsWERFpa78K/Kd2nV1r62C7KNo+hGbaRERE2tU7gA+1c6y1fbBdFG3f1PYsIiLSlr7Z7rHWEcGW+n+At2mbFhERaStvS1/j215HBNvoyOQq8NvA27Vti4iItIW3A7/dbhfI7ehgS6NtHVjQ9i0iItIWFibGp9c75caaHXbnfhh4KxBrOxcREWlJcfpa/uFOutEdFWyjI5M+8B+pr4BQ0zYvIiLSUmrpa/h/nBif9jvphtuddk+PjkzGwPumZsZM6vu/89r+RUREml4JeNfE+PT7OvHGm516r4+OTL4H+ANt/yIiIi3hDybGp9/TqTfe7PA7/xywpMeAiIhIU1tKX7M7VkcH2+jI5PuA96GzR0VERJrVAvC+Tt0VqmC7EG3vAT4AzOkxISIi0lTmgA908q5QBdul0fZu4LMaCRERkaby2Ynx6XdrGBRsF/sSHb5/XEREpImcS1+bRcF2wejI5PuB3wDOazRERET21XngNybGp9+voVCwXSva/iMwq9EQERHZF7PUL4yrWFOwXTfafgN4LzCv0RAREdlT88B7J8anf0NDoWDbSrR9ADitkRAREdlTpyfGpz+gYVCwbcfvouuziYiI7JWF9LVXFGxbNzoy+fvAW4EVjYaIiMiuWgHeOjE+/fsaCgXbzUTbfwb+DVDe658dJzG+v647QURE9l+SEMXBbn33MvBvJsan/7MGWsG2k2h7EPjXQLC3j40YP6zoDhARkX0XJzGV6upufOsA+NcT49MPapSvz9YQbMlk+ucf7WGykRBp5EVEZN8lSUIQ1nbjW7/+otdYuQ7NsG3B6MgkwMeAf7mH72cgKWvwRURkX8VxyMLCt4niaqO/9b8EPjYxPq1BVrA1NNoi4C/28P0MUbzE2vozGnwREdk3SZJQqayQJA0/MugvJsantStJwbYrVoAf2atgC6MKy2tnNeoiIrJvwijg1OlHGv1tfxhdhUHBtltGRyYD4FPphrb7D5KwxtLasxp4ERHZF3EccfbMN5ldONnoWPvzifHpQCOsYNvNaPOBP9+LaEvwqdZOsbL2bQ28iIjsQ7CFfOPxz1GpNWy1xo1Y8zW6CrY2iraEWrDE+cVvadBFRGRPJUnCs6cfYWnlLEnSkEPNFGsKtn2Ltk8BP7qbPyeKyyyvPszC8uMadBER2cNgi3nk0RnWKw05lvpHgU8p1hRs+xVtAfCJdEMMd+enxJRrs3z7zOdZXv0WkGjgRURkl2Mt4dSpr3Ju7jGSJN7JtwrT18hP6Jg1Bdt+R1sE/Cnw4+zaElY1StVvc+rcQyyvfmunDx4REZFrTxPEEd8++RU+96WPEUQ7WiKxnL42/qku37FzhoagcaZmxn4M+AOge1fq2uyip3AvRw7cT0/xNkzT0qCLiEhDRFFIGNZ49vTX+cJX/oz18ll2sFdnBfhXE+PTH9fIKtiaNdpeA3wQ6N+N758kHoXMLRwdfikDvXdh254GXUREdhBqAb5f4ezZR/nmE3/N2blHCaPKTmJtAXjTxPj0RzW6CrZmj7ZfBN6/m3ebQTeHBr+T4YH7sEwP27IBA9t2NfMmIiI3iDSfaq1EFIXMzj7F49/6IkvLZyhVZomTHR+S/UsT49O/oVFuLC3+vjvOAc8CR3bn2yfEyQrPnP9/efTJvyFrH6Wvux/LtOjtO0I2041p2ZiGwk1ERC6I44g4DllaPs3TJ/+etdIia6U5fH+VhIYcH/1s+hooDaYZtl0yNTP2U8C7gGO79TOSxGDu/DqLC+uXNLhlumQzXbhODsPQXSwiInXV2jrV2ipREkAS0eArD5wC3j4xPv1HGmkFW6tF22uBdwC37NbPmJ9bZ2GuTJLoch8iIrJvvg28c2J8+kENxe7QZT120ejI5IPAvwee3q2fYVkmjmNqJk1ERPbL08C/V6wp2Fo92v4L9V2juxJtrmeTyTqKNhER2a9Ye9fE+PR/0VDsLr3C75GpmbHXA28Hbm309y6VfFaWKlQrAUEQa/eoiIjsZax9WEOhYGu3aHsd8KvswjFtijYREdlD36a+G1Qzawq2to221wLvZBfOHlW0iYjIHjgFvEPHrCnYOiHafgp4N7twnbZyyWdpqUJN0SYiIo33LPA2XbpDwdZJ0fYaYBj4ZRq8jFW55LO0WKZWDQmCCDWbiIjs0ALw68A5LTmlYOvkcPsQDV4wvlz2WVooU6uFBL6iTUREbtoK8EaFmoJN0TYz9mPAfwFyjfy+lXLAwnwJ31e0iYjIzb3/B143MT79cQ2Fgk3q0fbDwH+nweu7VioBC3P1aPNrkQZaRES2KgR+fGJ8+k81FPtPF85tHn8G/ESjv2k26zAwmMdxLFzP1iiLiMhW/UT62iQKNtkwOjKZAJ8AfrTR3zuTdRg6UMS2TVzP0mCLiMiN/CjwiYnxaR1Mo2CTq0RbBPxP4Icb/b29jM2B4SKWZWqmTURErueHgf85MT6t42gUbHKdaAuAP9+taBs+2IVlGYo2ERG5Vqz9+cT4dKChaC466aBJTc2MucAPAA0/2LNWDTl3dpUoSvBroQZbREQujjVfQ9F8NMPWpEZHJn3qM20/0ujvrZk2ERFRrLUWzbA1uamZMYf6RXX/KfBfG/m9L8y0xbrkh4hIZ/qXwF8AK9oNqmCTxoSbRf0U6w8DTiOj7fy5VcJQu0dFRDpIALwe+JhOLmgN2iXaItIzSCfTB1i5Ud+3fvZoF46js0dFRDpEOX0tmVSstQ7NsLWgqZmx1wK/SQPXH61WQ+bOrxEEkZaxEhFpXyvAv5kYn35QQ9FaNMPWgkZHJh8EfglYaNT3zGRsBocKuK6N41oYSnkRkXazAPySYq016WW5hU3NjP1r4GeBw8BAI75npRywsFDCr4YEgWbaRETawDxwGvjdifHp39dwKNhk/8JtAngLMNSYaPNZXChTq4YEQUyiahMRaVWzwHsnxqc/oKFobdol2gZGRyY/ALwPON+I75fNufT25fCyNo5jYmj/qIhIKzoPvE+x1h70StxGpmbGfgn4RWC4Ed+vXPJZXqpQrQSaaRMRaS3ngN+YGJ9+v4ZCwSbNG20vBr4bGFS0iYh0lDngs8CXFGsKNmmNcHsbMAH07/R7lUo+K4o2EZFmtwB8YGJ8+t0aCgWbtFa0vRV4M9CraBMRaWtL1I9Xe4+GQsEmrRltb6Z+TNu/AvKKNhGRtlIC/gA4NzE+/T4Nh4JNWj/c3gr8O8DbyffRMW0iIk2jBvw7zaop2KT9ou3NwK+zw8u5lEs+S0sVaoo2EZH9EgO/rFm1zqHVvjvL+9NI39G7sVzeBWApSQCtiCAisg/elj6nS4fQDFuHmZoZc4HXUz979F07+V7lss/SQplaLdSC8SIie+Pt1M8G/fDE+LSv4VCwSfuHWwH4eWBHp39XygEL8yV8P8T3I1C0iYjslrcBvz0xPr2uoVCwSWdFWxfw/cA9wDtvOtoqAQtz6/h+hF+LNLAiIo31DuCbwP8zMT69quFQsEnnhlsf8Ebg39/s96hWAuZm1wmCGL8WalBFRBrjV4EPTYxPL2ooOpsWfxdGRyYXgQ+l7+JuSibrMHSgiG2buJ6lQRUR2bl3KNZkg2bYZFM603Yn8Crgl2/me9SqIefOrhJFiWbaRERuzq8DnwQeV6yJgk1uFG5vBt6iaBMR2VPvpb7ElEJNFGyypWjrAQaBXwB+TtEmIrKr/hPwW8DcxPj0soZDFGyy3XDrSt/xvUHRJiKyK34PeIvOABUFm+w02nJABvggMHZz0Rbrkh8iIpeaBN4EVCfGp8saDlGwSaPCzQE+DPwQ9UXkt3Q6aK0acv7cKmGomTYR6XgR9UXb/wx4/cT4dKAhEQWb7Ga8/THw3UAPW1iTtlYNmT2/puu0iUinCoFl4LMT49M/quEQBZvsdbj9L+D7AOdGX1utphfX9SOtPSoinSQApifGp/+ZhkIUbLLf0XYCuJ0b7CatL2NVX3tU0SYibS4CngSeUqyJgk2aKdw+TX036XVX0KiUAxYXStSqIUEQk6jaRKT9xNR3f75SQyEKNmnGaPtLoAi8+HpfVy77LC2UFW0i0o6+BKxNjE9/r4ZCFGzSzNFWAD4B5IDvvGa0lXyWlirUKoGiTUTaweeBMvDqifHpdQ2HKNikVcLtIPDfqO8mvWa0LS9VqCraRKS1fRb4yYnx6bMaClGwSStG2zHgfcAQ8ApFm4i0mc8As8CbJ8anT2k4RMEmrR5ud1NfTP741cKtVPJZUbSJSGuF2kngvRPj049qOETBJu0Wbs8Hfga4FxhRtIlIi5kBHgH+cGJ8+qsaDlGwSbuH20uBd3PZbJuiTUSa2GeAt02MT39RQyEKNumkaHsZ8E+pn5Tw8o3P65g2EWkyn6N+UsFfTIxPf0HDIQo26dRw+8fAdwGvAl66EW265IeI7LMvAp8E/mZifPqvNByiYBOph9srgPuAnwYeKJd8lhY3Lq6rZaxEZM88BHwEeHhifPozGg5RsIlcPdxeSX1t0n9TLvv3LC2UqdW09qiI7LpvAr9Jfe3PT2s4RMEmsrVw+15guFzy37W4UD7u+yG+H4GiTUQa6yTwduDcxPj0X2o4RMEmcnPh9sozz670BEH0e1GUDPi1UIMiIo0wD7wBWNaMmijYRBrkdx8cfQWQqZSDTwCeRkREblINeDVQ1TFqomAT2SUf+J3veznQQ/3sLRGR7XgV9Rm1z2koRMEmsvvRZgMvAI4Cf6IREZEb+BHgGeDvJ8andVyFKNhE9jjcPOBO6pcDmdSIiMhlxoCHgccnxqdrGg5RsInsb7hlgMPUl7r6Q42ISMf7GepLSZ2eGJ+uajhEwSbSfOHWl/71p4D3aFREOsZbgT9KP15UqImCTaQ14s0DssAE8DbA1DYv0lYSIAbeDXwAqGi3pyjYRFo33CzAAt4F/CyQAWyNjEjLCoEq8LvUL3gbTYxPRxoWUbCJtFfA/TbwY+lfewBXoyLS9HxgOf344xPj0z+vIREFm0jnxNt/A74TOKhwE2naUDsLfH5ifPonNRyiYBPp7HD7BHBX+tc7qe9CFZH9EQGPpx8/NjE+/WoNiSjYROTyePvfQDf149zu04iI7JmHqR+ftjIxPv09Gg4RBZvIVsKtG/hz6meavlAjIrJrvgJUgB+YGJ9e0XCIKNhEbibcjgAfTv/ap3gTaVikLaYfv35ifPpZDYmIgk2kUfF2P/DO9K/HgAc0KiJb9hBwKv34HRPj01/TkIgo2ER2O95GgDekf70XeJ5GReQKXwceST/+vYnx6RkNiYiCTWS/4u0HgX+R/vW7uHDGqUgnegz4m/Tj/zExPv0pDYmIgk2k2eLtJ6hf2w3gB4HjGhXpACeBjTD7/MT49Mc0JCIKNpFWibfXA3enf30tMKhRkTYyBzyYfvzoxPj0hzUkIgo2kVaPt3FgKP3rW6ivaSrSaqrAe9OPZyfGp39HQyKiYBNp13h700XB1psGnEizei+wtBFsE+PTH9SQiCjYRDot3orUd5cCnADepFGRJvBB4Kn04wcnxqfXNCQiCjYRqcfbAeonKmz4R8BPa2RkD3wE+OuL/v6pifHp8xoWEQWbiNw44E4AL7noUz9+WdCJ3KxPAf/9or//7cT49FMaFhEFm4jsPODuBe687NP/Fq24INf3EPAfLvvc4xPj049oaEQUbCKyNxH3QmDgok89CAxrZDraOS4cFwkwPzE+/RUNi4iCTUSaJ+BezKWXDOkDPqGRaWuv5sJC6lA/k/NLGhYRBZuItE7AOcD9l336ZcBvaXRa0i8AX7jsc1+bGJ8ONDQiCjYRaa+IK3D1JbPeCPysRqgp/C7woat8/uTE+PS6hkdEwSYinRtyvUDPNf7548CLNEoN9WXgx67xb8sT49NLGiIRUbCJyHZirg9wr/HPB4CvapSu6vnAta5n5k+MTy9qiEREwSYiexFzBlDc4pf/CvDmFr/J7wN+bYtfuzYxPp1oKxGRnfj/A/gMm1vybqNlAAAAAElFTkSuQmCC;fontStyle=1;fontSize=16;" parent="1" vertex="1">
          <mxGeometry x="990" y="290" width="90" height="90" as="geometry" />
        </mxCell>
        <mxCell id="tUQ-aMvzuXg3lIFRuzxx-27" style="edgeStyle=orthogonalEdgeStyle;rounded=0;orthogonalLoop=1;jettySize=auto;html=1;strokeWidth=3;entryX=0.25;entryY=1;entryDx=0;entryDy=0;startArrow=classic;startFill=1;" parent="1" source="tUQ-aMvzuXg3lIFRuzxx-22" target="tUQ-aMvzuXg3lIFRuzxx-9" edge="1">
          <mxGeometry relative="1" as="geometry">
            <mxPoint x="567" y="673" as="targetPoint" />
          </mxGeometry>
        </mxCell>
        <mxCell id="tUQ-aMvzuXg3lIFRuzxx-22" value="" style="shape=image;verticalLabelPosition=bottom;labelBackgroundColor=default;verticalAlign=top;aspect=fixed;imageAspect=0;image=https://cdn-icons-png.flaticon.com/512/1465/1465626.png;" parent="1" vertex="1">
          <mxGeometry x="198.45" y="740" width="140" height="140" as="geometry" />
        </mxCell>
        <mxCell id="tUQ-aMvzuXg3lIFRuzxx-23" value="" style="shape=image;verticalLabelPosition=bottom;labelBackgroundColor=default;verticalAlign=top;aspect=fixed;imageAspect=0;image=https://upload.wikimedia.org/wikipedia/commons/thumb/3/36/MetaMask_Fox.svg/1200px-MetaMask_Fox.svg.png;" parent="1" vertex="1">
          <mxGeometry x="280" y="700" width="100" height="100" as="geometry" />
        </mxCell>
        <mxCell id="tUQ-aMvzuXg3lIFRuzxx-28" value="&lt;font style=&quot;font-size: 15px;&quot;&gt;Ethereum Blockchain&lt;/font&gt;" style="text;strokeColor=none;fillColor=none;html=1;fontSize=24;fontStyle=1;verticalAlign=middle;align=center;" parent="1" vertex="1">
          <mxGeometry x="516.5" y="510" width="100" height="40" as="geometry" />
        </mxCell>
        <mxCell id="tUQ-aMvzuXg3lIFRuzxx-34" style="edgeStyle=orthogonalEdgeStyle;rounded=0;orthogonalLoop=1;jettySize=auto;html=1;exitX=0.5;exitY=0;exitDx=0;exitDy=0;entryX=0.5;entryY=1;entryDx=0;entryDy=0;strokeWidth=3;startArrow=classic;startFill=1;" parent="1" source="tUQ-aMvzuXg3lIFRuzxx-31" target="tUQ-aMvzuXg3lIFRuzxx-22" edge="1">
          <mxGeometry relative="1" as="geometry" />
        </mxCell>
        <mxCell id="tUQ-aMvzuXg3lIFRuzxx-31" value="" style="shape=image;verticalLabelPosition=bottom;labelBackgroundColor=default;verticalAlign=top;aspect=fixed;imageAspect=0;image=https://upload.wikimedia.org/wikipedia/commons/thumb/1/1b/DGT_logo.svg/1200px-DGT_logo.svg.png;" parent="1" vertex="1">
          <mxGeometry x="178.83999999999997" y="930" width="179.22" height="88.92" as="geometry" />
        </mxCell>
        <mxCell id="rmS88DElZMO9JBeu8ZCE-9" value="" style="shape=image;verticalLabelPosition=bottom;labelBackgroundColor=default;verticalAlign=top;aspect=fixed;imageAspect=0;image=https://cdn-icons-png.flaticon.com/512/1465/1465626.png;" parent="1" vertex="1">
          <mxGeometry x="808.45" y="740" width="140" height="140" as="geometry" />
        </mxCell>
        <mxCell id="rmS88DElZMO9JBeu8ZCE-10" value="" style="shape=image;verticalLabelPosition=bottom;labelBackgroundColor=default;verticalAlign=top;aspect=fixed;imageAspect=0;image=https://upload.wikimedia.org/wikipedia/commons/thumb/3/36/MetaMask_Fox.svg/1200px-MetaMask_Fox.svg.png;" parent="1" vertex="1">
          <mxGeometry x="771.95" y="720" width="100" height="100" as="geometry" />
        </mxCell>
        <mxCell id="rmS88DElZMO9JBeu8ZCE-11" style="edgeStyle=orthogonalEdgeStyle;rounded=0;orthogonalLoop=1;jettySize=auto;html=1;entryX=0.5;entryY=1;entryDx=0;entryDy=0;strokeWidth=3;startArrow=classic;startFill=1;" parent="1" source="rmS88DElZMO9JBeu8ZCE-14" target="rmS88DElZMO9JBeu8ZCE-9" edge="1">
          <mxGeometry relative="1" as="geometry">
            <mxPoint x="878.4500000000003" y="930" as="sourcePoint" />
            <Array as="points" />
          </mxGeometry>
        </mxCell>
        <mxCell id="rmS88DElZMO9JBeu8ZCE-14" value="&lt;b&gt;&lt;font style=&quot;font-size: 16px;&quot;&gt;Otros agentes&lt;/font&gt;&lt;/b&gt;" style="shape=umlActor;verticalLabelPosition=bottom;verticalAlign=top;html=1;outlineConnect=0;strokeWidth=3;" parent="1" vertex="1">
          <mxGeometry x="855.1700000000001" y="930" width="46.55" height="90" as="geometry" />
        </mxCell>
      </root>
    </mxGraphModel>
  </diagram>
</mxfile>
